<?xml version="1.0" encoding="UTF-8" standalone="no"?>
<!-- Created with Inkscape (http://www.inkscape.org/) -->

<svg
   xmlns:dc="http://purl.org/dc/elements/1.1/"
   xmlns:cc="http://creativecommons.org/ns#"
   xmlns:rdf="http://www.w3.org/1999/02/22-rdf-syntax-ns#"
   xmlns:svg="http://www.w3.org/2000/svg"
   xmlns="http://www.w3.org/2000/svg"
   xmlns:sodipodi="http://sodipodi.sourceforge.net/DTD/sodipodi-0.dtd"
   xmlns:inkscape="http://www.inkscape.org/namespaces/inkscape"
   width="80"
   height="80"
   viewBox="0 0 21.166666 21.166667"
   version="1.1"
   id="svg170"
   sodipodi:docname="reindeer-rudolf.svg"
   inkscape:version="0.92.4 (5da689c313, 2019-01-14)">
  <defs
     id="defs164" />
  <sodipodi:namedview
     id="base"
     pagecolor="#ffffff"
     bordercolor="#666666"
     borderopacity="1.0"
     inkscape:pageopacity="0.0"
     inkscape:pageshadow="2"
     inkscape:zoom="11.4125"
     inkscape:cx="40"
     inkscape:cy="42.893276"
     inkscape:document-units="mm"
     inkscape:current-layer="layer1"
     showgrid="false"
     units="px"
     inkscape:window-width="1920"
     inkscape:window-height="1080"
     inkscape:window-x="1366"
     inkscape:window-y="0"
     inkscape:window-maximized="0">
    <inkscape:grid
       type="xygrid"
       id="grid172"
       dotted="true" />
  </sodipodi:namedview>
  <metadata
     id="metadata167">
    <rdf:RDF>
      <cc:Work
         rdf:about="">
        <dc:format>image/svg+xml</dc:format>
        <dc:type
           rdf:resource="http://purl.org/dc/dcmitype/StillImage" />
        <dc:title></dc:title>
      </cc:Work>
    </rdf:RDF>
  </metadata>
  <g
     inkscape:label="Layer 1"
     inkscape:groupmode="layer"
     id="layer1"
     transform="translate(0,-275.83332)">
    <path
       style="fill:#a05a2c;fill-rule:evenodd;stroke:#000000;stroke-width:0.26458332px;stroke-linecap:round;stroke-linejoin:miter;stroke-opacity:1"
       d="m 7.3882854,285.36098 c -0.29439,-0.27762 -0.7249551,-0.30505 -1.0983016,-0.40662 -0.7431635,-0.16724 -1.5139862,-0.20008 -2.2703736,-0.11913 -0.6286847,0.091 -1.259432,0.19698 -1.8667417,0.38686 -0.4767206,0.144 -0.8782768,0.44835 -1.32784237,0.65281 0.26853987,0.3189 0.60875397,0.57409 0.95401507,0.80505 0.5631301,0.35405 1.202978,0.56249 1.8525796,0.6897 0.5552822,0.1529 1.1149083,0.29698 1.6892524,0.35856 0.529472,0.0739 1.5382457,0.014 1.5382457,0.014 0,0 0.3737658,-1.68248 0.5291683,-2.38149 z"
       id="path199"
       inkscape:connector-curvature="0"
       sodipodi:nodetypes="ccccccccccc" />
    <path
       style="fill:#552200;fill-rule:evenodd;stroke:#000000;stroke-width:0.26458332px;stroke-linecap:round;stroke-linejoin:miter;stroke-opacity:1"
       d="m 7.3882854,285.36098 c 0.33584,-1.198 -1.9430656,-3.6175 -2.5761617,-4.76673 -0.4886658,-0.88704 -0.9135711,-2.04362 -1.2529906,-2.70244 -0.7209866,-2.0706 1.1081884,-4.06543 2.6358325,-3.6853 0.4489711,0.22552 0.1047307,0.75783 -0.2120572,0.93603 -1.1480048,0.19803 -1.9694481,2.21641 -1.2608392,2.54305 0.3519236,0.16223 0.5375503,-0.018 0.8166477,-0.044 0.4604487,-0.0412 0.9947645,-0.12918 1.3837091,0.17962 0.413088,0.42381 -0.2127229,0.76292 -0.6151669,0.76405 -0.4584572,0.0655 -0.9139857,0.23656 -0.9517405,0.40101 -0.03036,0.13225 0.1254186,0.55318 0.7760828,1.04534 0.5238302,0.18497 0.9677513,-0.26047 1.4098326,-0.462 0.4260306,-0.16956 1.013185,0.23272 0.84367,0.71036 -0.1817257,0.60942 -0.8999565,0.67399 -1.3390986,1.0179 -0.3675064,0.24483 0.058215,0.6943 0.2660411,0.9175 0.2332334,0.48893 1.1007645,1.45353 2.0345835,1.36626"
       id="path1075"
       inkscape:connector-curvature="0"
       sodipodi:nodetypes="cscccscccscccccc" />
    <path
       sodipodi:nodetypes="cscccscccscccccc"
       inkscape:connector-curvature="0"
       id="path1077"
       d="m 7.3882854,285.36098 c 0.33584,-1.198 -1.9430656,-3.6175 -2.5761617,-4.76673 -0.4886658,-0.88704 -0.9135711,-2.04362 -1.2529906,-2.70244 -0.7209866,-2.0706 1.1081884,-4.06543 2.6358325,-3.6853 0.4489711,0.22552 0.1047307,0.75783 -0.2120572,0.93603 -1.1480048,0.19803 -1.9694481,2.21641 -1.2608392,2.54305 0.3519236,0.16223 0.5375503,-0.018 0.8166477,-0.044 0.4604487,-0.0412 0.9947645,-0.12918 1.3837091,0.17962 0.413088,0.42381 -0.2127229,0.76292 -0.6151669,0.76405 -0.4584572,0.0655 -0.9139857,0.23656 -0.9517405,0.40101 -0.03036,0.13225 0.1254186,0.55318 0.7760828,1.04534 0.5238302,0.18497 0.9677513,-0.26047 1.4098326,-0.462 0.4260306,-0.16956 1.013185,0.23272 0.84367,0.71036 -0.1817257,0.60942 -0.8999565,0.67399 -1.3390986,1.0179 -0.3675064,0.24483 0.058215,0.6943 0.2660411,0.9175 0.2332334,0.48893 1.1007645,1.45353 2.0345835,1.36626"
       style="fill:none;fill-rule:evenodd;stroke:#000000;stroke-width:0.26458332;stroke-linecap:round;stroke-linejoin:round;stroke-miterlimit:4;stroke-dasharray:none;stroke-opacity:1" />
    <path
       style="fill:#a05a2c;fill-rule:evenodd;stroke:#000000;stroke-width:0.26499999;stroke-linecap:round;stroke-linejoin:round;stroke-miterlimit:4;stroke-dasharray:none;stroke-opacity:1"
       d="m 10.882159,282.81762 c -1.6926112,-0.0287 -3.4912011,0.44982 -4.7816203,1.4919 -1.1592853,0.93618 -1.9546501,2.4973 -2.0236489,3.9858 -0.029521,0.63684 0.1175253,1.31919 0.4082439,1.91772 -0.023577,0.19126 -0.063545,0.37688 -0.1483114,0.54673 -0.5364311,1.07491 -2.3099127,1.46793 -2.4282756,2.66341 -0.0735,0.74236 0.5336999,1.50346 1.1544516,1.91719 1.0471525,0.69792 2.5072239,0.82997 3.7346556,0.55242 1.5505472,-0.35062 2.7255636,-1.65618 3.9584141,-2.65978 0.401359,-0.32673 0.87557,-0.62434 1.28261,-0.96739 0.608748,-0.57309 1.002081,-0.924 1.661228,-1.34127 0.912254,-0.57751 1.844762,-1.37546 2.169893,-2.40503 0.28188,-0.8926 0.537622,-1.55014 0.155715,-2.40474 -0.331279,-0.74132 -0.96117,-1.33667 -1.603003,-1.834 -0.832636,-0.64518 -1.775447,-1.31054 -2.823083,-1.42007 -0.235665,-0.0246 -0.475467,-0.0388 -0.717269,-0.0429 z"
       id="path188"
       inkscape:connector-curvature="0"
       sodipodi:nodetypes="scsccscccccscccs" />
    <path
       style="fill:#803300;fill-rule:evenodd;stroke:none;stroke-width:0.26458332px;stroke-linecap:round;stroke-linejoin:miter;stroke-opacity:1"
       d="m 5.7540339,293.23174 c 1.5731145,4.7e-4 2.9529941,-0.86677 4.2558521,-1.64702 0.457347,-0.3241 0.66034,-0.6097 1.268583,-1.05091 0.90203,-0.58746 2.047229,-1.13364 2.700002,-2.01277 0.409589,-0.64009 0.587073,-1.4006 0.604507,-2.15628 0.01858,-0.80551 -0.104076,-1.48342 -0.477266,-2.26793 0.409058,0.34247 0.840311,0.77998 1.369477,1.23482 0.458376,0.47573 0.24887,1.15672 0.358193,1.73986 0.09395,0.62652 0.09245,1.23406 -0.159825,1.84991 -0.41119,0.66565 -0.992335,1.23004 -1.580388,1.69464 -0.594472,0.49581 -1.310301,0.86692 -1.835465,1.43986 -0.510478,0.48205 -1.190665,0.73767 -1.672068,1.25925 -0.565709,0.5993 -1.2090655,1.04035 -1.8716308,1.58431 -0.6540837,0.49649 -1.1187472,0.69913 -1.9631423,1.01612 -0.7456356,0.15903 -1.5331745,0.11127 -2.2946725,0.0441 -0.8166978,-0.2861 -1.6021443,-0.55216 -2.1103518,-1.2813 -0.5082075,-0.72915 -0.1184575,-1.05646 0.4725962,-1.14624 0.8371897,-0.3176 1.7479236,-0.33454 2.6282992,-0.34054 0.1024221,0.0139 0.2033945,0.039 0.3072999,0.0401 z"
       id="path1086"
       inkscape:connector-curvature="0"
       sodipodi:nodetypes="ccccscccccccccczcccc" />
    <path
       sodipodi:nodetypes="scsccscccccscccs"
       inkscape:connector-curvature="0"
       id="path1079"
       d="m 10.882159,282.81762 c -1.6926112,-0.0287 -3.4912011,0.44982 -4.7816203,1.4919 -1.1592853,0.93618 -1.9546501,2.4973 -2.0236489,3.9858 -0.029521,0.63684 0.1175253,1.31919 0.4082439,1.91772 -0.023577,0.19126 -0.063545,0.37688 -0.1483114,0.54673 -0.5364311,1.07491 -2.3099127,1.46793 -2.4282756,2.66341 -0.0735,0.74236 0.5336999,1.50346 1.1544516,1.91719 1.0471525,0.69792 2.5072239,0.82997 3.7346556,0.55242 1.5505472,-0.35062 2.7255636,-1.65618 3.9584141,-2.65978 0.401359,-0.32673 0.87557,-0.62434 1.28261,-0.96739 0.608748,-0.57309 1.002081,-0.924 1.661228,-1.34127 0.912254,-0.57751 1.844762,-1.37546 2.169893,-2.40503 0.28188,-0.8926 0.537622,-1.55014 0.155715,-2.40474 -0.331279,-0.74132 -0.96117,-1.33667 -1.603003,-1.834 -0.832636,-0.64518 -1.775447,-1.31054 -2.823083,-1.42007 -0.235665,-0.0246 -0.475467,-0.0388 -0.717269,-0.0429 z"
       style="fill:none;fill-rule:evenodd;stroke:#000000;stroke-width:0.26499999;stroke-linecap:round;stroke-linejoin:round;stroke-miterlimit:4;stroke-dasharray:none;stroke-opacity:1" />
    <path
       sodipodi:nodetypes="cccccccccc"
       inkscape:connector-curvature="0"
       id="path217"
       d="m 14.109477,286.0754 c 0.594988,-0.41116 1.34892,-0.34126 2.030106,-0.45248 1.020423,-0.0757 2.042241,0.14926 2.983649,0.53387 0.376715,0.13068 0.837267,0.26602 0.999369,0.67237 0.02593,0.24797 -0.250151,0.40121 -0.456881,0.4681 -0.403976,0.12485 -0.784376,0.31045 -1.184458,0.44768 -0.775625,0.29736 -1.584341,0.53506 -2.419354,0.56815 -0.586655,0.0386 -1.218064,-0.007 -1.716883,-0.35002 -0.142835,-0.0969 -0.548762,-0.05 -0.500112,-0.30072 z"
       style="fill:#a05a2c;fill-rule:evenodd;stroke:none;stroke-width:0.26458332px;stroke-linecap:round;stroke-linejoin:miter;stroke-opacity:1" />
    <path
       style="fill:none;fill-rule:evenodd;stroke:#000000;stroke-width:0.26458333;stroke-linecap:round;stroke-linejoin:miter;stroke-opacity:1;stroke-miterlimit:4;stroke-dasharray:none"
       d="m 14.109477,286.0754 c 0.594988,-0.41116 1.34892,-0.34126 2.030106,-0.45248 1.020423,-0.0757 2.042241,0.14926 2.983649,0.53387 0.376715,0.13068 0.837267,0.26602 0.999369,0.67237 0.02593,0.24797 -0.250151,0.40121 -0.456881,0.4681 -0.403976,0.12485 -0.784376,0.31045 -1.184458,0.44768 -0.775625,0.29736 -1.584341,0.53506 -2.419354,0.56815 -0.586655,0.0386 -1.218064,-0.007 -1.716883,-0.35002 -0.142835,-0.0969 -0.347113,-0.1593 -0.555953,-0.19386"
       id="path208"
       inkscape:connector-curvature="0"
       sodipodi:nodetypes="ccccccccc" />
    <path
       style="fill:#ff0000;fill-rule:evenodd;stroke:#000000;stroke-width:0.26458332px;stroke-linecap:round;stroke-linejoin:miter;stroke-opacity:1"
       d="m 2.2591963,292.84442 c 0.4333998,-0.20957 0.9072189,-0.35898 1.3864936,-0.40427 0.7578511,-0.0716 1.6179459,-0.16998 2.2733249,0.21725 0.2664296,0.15742 0.5490025,0.45849 0.5232438,0.76688 -0.03634,0.43506 -0.5286681,0.72733 -0.9074324,0.94444 -0.5629705,0.3227 -1.2455032,0.49822 -1.8929234,0.45441 -0.5347259,-0.0362 -1.1731868,-0.15667 -1.49862,-0.5825 -0.2488167,-0.32558 -0.2975673,-0.84911 -0.1288545,-1.22254 0.041189,-0.0912 0.1547045,-0.13012 0.244768,-0.17367 z"
       id="path203"
       inkscape:connector-curvature="0"
       sodipodi:nodetypes="aaaaaaaaa" />
    <path
       sodipodi:nodetypes="cccccccc"
       style="fill:none;fill-rule:evenodd;stroke:#000000;stroke-width:0.26458332px;stroke-linecap:round;stroke-linejoin:miter;stroke-opacity:1"
       d="m 3.7383149,294.752 c 0.00894,-0.19627 0.013221,-0.23203 0.029191,-0.41375 0.00851,-0.22233 -0.030641,-0.45144 0.053222,-0.66502 0.042776,-0.16032 0.1323774,-0.33078 0.307122,-0.37373 0.2159894,-0.0718 0.4976413,-0.0387 0.6353822,0.15911 0.075075,0.17351 -0.08257,0.32981 -0.202131,0.43492 -0.1871196,0.15714 -0.4196914,0.25097 -0.6517738,0.31633 -0.032698,0.003 -0.101864,0.0909 -0.1239266,0.0441"
       id="path1047"
       inkscape:connector-curvature="0" />
    <path
       sodipodi:nodetypes="cccccccccc"
       style="fill:none;fill-rule:evenodd;stroke:#000000;stroke-width:0.26458332px;stroke-linecap:round;stroke-linejoin:miter;stroke-opacity:1"
       d="m 3.0640652,294.69645 c 0.012387,-0.2535 -0.00112,-0.38665 0.00588,-0.61423 0.00366,-0.12601 0.00979,-0.25251 0.00148,-0.37821 0.015374,-0.13291 -0.024627,-0.2921 -0.1546288,-0.35473 -0.1135895,-0.0563 -0.2433191,-0.062 -0.3668694,-0.0782 -0.1254892,-0.008 -0.2580204,0.0584 -0.3055246,0.17892 -0.035699,0.0706 -0.026069,0.1638 0.037711,0.21542 0.066439,0.0612 0.1504662,0.0993 0.2260858,0.1467 0.1610206,0.0593 0.3281271,0.1004 0.4930395,0.14645 l -0.00493,-0.004"
       id="path1051"
       inkscape:connector-curvature="0" />
    <path
       sodipodi:nodetypes="cscccscccscccccc"
       inkscape:connector-curvature="0"
       id="path1073"
       d="m 14.160719,285.29403 c -0.287833,-1.21043 2.085683,-3.53719 2.764074,-4.66028 0.523628,-0.86686 0.994286,-2.00559 1.359691,-2.65036 0.802931,-2.04022 -0.945296,-4.10636 -2.486875,-3.78741 -0.457603,0.20745 -0.134849,0.75305 0.174586,0.94374 1.139203,0.24361 1.879559,2.29313 1.158498,2.59127 -0.358109,0.14807 -0.536407,-0.0394 -0.814247,-0.0765 -0.458442,-0.0595 -0.988828,-0.16872 -1.389773,0.12434 -0.429648,0.40701 0.182151,0.77079 0.584231,0.78796 0.455485,0.0837 0.903836,0.27278 0.935013,0.4386 0.02506,0.13335 -0.147365,0.54774 -0.817122,1.01357 -0.530789,0.16396 -0.956606,-0.29882 -1.390322,-0.51777 -0.418915,-0.18645 -1.021658,0.19217 -0.87131,0.67617 0.157293,0.61619 0.872382,0.70933 1.29747,1.07047 0.357436,0.25933 -0.08584,0.69143 -0.302393,0.90617 -0.252534,0.47924 -1.157817,1.4085 -2.087414,1.28408"
       style="fill:#552200;fill-rule:evenodd;stroke:#000000;stroke-width:0.26458332px;stroke-linecap:round;stroke-linejoin:miter;stroke-opacity:1" />
    <path
       style="fill:none;fill-rule:evenodd;stroke:#000000;stroke-width:0.26458332;stroke-linecap:round;stroke-linejoin:round;stroke-miterlimit:4;stroke-dasharray:none;stroke-opacity:1"
       d="m 14.160719,285.29403 c -0.287833,-1.21043 2.085683,-3.53719 2.764074,-4.66028 0.523628,-0.86686 0.994286,-2.00559 1.359691,-2.65036 0.802931,-2.04022 -0.945296,-4.10636 -2.486875,-3.78741 -0.457603,0.20745 -0.134849,0.75305 0.174586,0.94374 1.139203,0.24361 1.879559,2.29313 1.158498,2.59127 -0.358109,0.14807 -0.536407,-0.0394 -0.814247,-0.0765 -0.458442,-0.0595 -0.988828,-0.16872 -1.389773,0.12434 -0.429648,0.40701 0.182151,0.77079 0.584231,0.78796 0.455485,0.0837 0.903836,0.27278 0.935013,0.4386 0.02506,0.13335 -0.147365,0.54774 -0.817122,1.01357 -0.530789,0.16396 -0.956606,-0.29882 -1.390322,-0.51777 -0.418915,-0.18645 -1.021658,0.19217 -0.87131,0.67617 0.157293,0.61619 0.872382,0.70933 1.29747,1.07047 0.357436,0.25933 -0.08584,0.69143 -0.302393,0.90617 -0.252534,0.47924 -1.157817,1.4085 -2.087414,1.28408"
       id="path1063"
       inkscape:connector-curvature="0"
       sodipodi:nodetypes="cscccscccscccccc" />
    <g
       id="g1061"
       transform="translate(0.75156265,0.75825692)"
       style="stroke-linecap:round">
      <path
         sodipodi:nodetypes="cccccccc"
         inkscape:connector-curvature="0"
         id="path223"
         d="m 9.5115088,289.31359 c -0.1964755,0.27081 -0.2509789,0.39159 -0.2838122,0.53451 0.1445283,0.0966 0.3621609,0.14395 0.5792849,0.20485 0.4342475,0.1218 1.2831745,0.0634 1.6517345,-0.11117 0.496961,-0.19079 1.086406,-0.4027 0.968397,-1.46915 -0.189201,-0.10036 -0.484285,-0.16093 -0.667405,-0.21701 -0.450832,-0.0994 -0.913954,0.0197 -1.145781,0.12504 -0.327529,0.14893 -0.6377231,0.33138 -1.1024182,0.93293 z"
         style="fill:#000000;fill-rule:evenodd;stroke:#000000;stroke-width:0.26458332;stroke-linecap:round;stroke-linejoin:round;stroke-miterlimit:4;stroke-dasharray:none;stroke-opacity:1" />
      <path
         sodipodi:nodetypes="ccccc"
         inkscape:connector-curvature="0"
         id="path1033"
         d="m 10.171973,288.8722 0.487632,0.25955 c 0.07219,-0.0489 0.13954,-0.10851 0.230586,-0.1681 l -0.288874,-0.4057 c -0.175823,0.068 -0.308138,0.18489 -0.429344,0.31425 z"
         style="fill:#ffffff;fill-rule:evenodd;stroke:none;stroke-width:0.26458332px;stroke-linecap:round;stroke-linejoin:miter;stroke-opacity:1" />
    </g>
  </g>
</svg>
