<?xml version="1.0" encoding="UTF-8" standalone="no"?>
<!-- Created with Inkscape (http://www.inkscape.org/) -->

<svg
   xmlns:dc="http://purl.org/dc/elements/1.1/"
   xmlns:cc="http://creativecommons.org/ns#"
   xmlns:rdf="http://www.w3.org/1999/02/22-rdf-syntax-ns#"
   xmlns:svg="http://www.w3.org/2000/svg"
   xmlns="http://www.w3.org/2000/svg"
   xmlns:sodipodi="http://sodipodi.sourceforge.net/DTD/sodipodi-0.dtd"
   xmlns:inkscape="http://www.inkscape.org/namespaces/inkscape"
   width="32"
   height="32"
   viewBox="0 0 8.4666665 8.4666669"
   version="1.1"
   id="svg1560"
   shape-rendering="crispEdges"
   inkscape:version="0.92.4 (5da689c313, 2019-01-14)"
   sodipodi:docname="reindeer-topdown.svg">
  <defs
     id="defs1554" />
  <sodipodi:namedview
     id="base"
     pagecolor="#ffffff"
     bordercolor="#666666"
     borderopacity="1.0"
     inkscape:pageopacity="0.0"
     inkscape:pageshadow="2"
     inkscape:zoom="87.684639"
     inkscape:cx="15.113318"
     inkscape:cy="22.199745"
     inkscape:document-units="mm"
     inkscape:current-layer="layer2"
     showgrid="false"
     units="px"
     inkscape:window-width="1366"
     inkscape:window-height="753"
     inkscape:window-x="0"
     inkscape:window-y="15"
     inkscape:window-maximized="0">
    <inkscape:grid
       type="xygrid"
       id="grid1562" />
  </sodipodi:namedview>
  <metadata
     id="metadata1557">
    <rdf:RDF>
      <cc:Work
         rdf:about="">
        <dc:format>image/svg+xml</dc:format>
        <dc:type
           rdf:resource="http://purl.org/dc/dcmitype/StillImage" />
        <dc:title></dc:title>
      </cc:Work>
    </rdf:RDF>
  </metadata>
  <g
     inkscape:label="Layer 1"
     inkscape:groupmode="layer"
     id="layer1"
     transform="translate(0,-288.53332)">
    <path
       id="path1570"
       style="fill:#a05a2c;fill-rule:evenodd;stroke:#784421;stroke-width:0.26458332px;stroke-linecap:butt;stroke-linejoin:miter;stroke-opacity:1"
       d="m 3.96875,288.7979 c -0.2645833,0 -0.28352,0.0772 -0.3658751,0.1866 -0.073611,0.0978 -0.00904,0.19935 -0.06995,0.36038 -0.093342,0.24677 -0.3579249,0.24677 -0.4065866,0.55757 -0.040804,0.26061 -0.07436,0.65724 0.1637134,0.7424 0.3052446,0.10919 0.3337445,0.4412 0.044596,0.6694 -0.1958837,0.20509 -0.3333297,0.29436 -0.3968637,0.48542 -0.060391,0.1816 -0.042485,0.65613 -0.014176,0.96488 0.028309,0.30875 0.1654546,0.48746 0.098914,0.88016 -0.066541,0.3927 -0.01058,1.24129 -0.00246,1.47867 0.025559,0.74724 0.1603804,1.08323 0.948688,1.08286 0.7883076,3.7e-4 0.923129,-0.33562 0.948688,-1.08286 0.00812,-0.23738 0.064081,-1.08597 -0.00246,-1.47867 -0.066541,-0.3927 0.070605,-0.57141 0.098914,-0.88016 0.028309,-0.30875 0.046215,-0.78328 -0.014176,-0.96488 -0.063534,-0.19106 -0.20098,-0.28033 -0.3968637,-0.48542 -0.2891485,-0.2282 -0.2606486,-0.56021 0.044596,-0.6694 0.2380734,-0.0852 0.2045174,-0.48179 0.1637134,-0.7424 -0.048662,-0.3108 -0.3132446,-0.3108 -0.4065866,-0.55757 -0.06091,-0.16103 0.00366,-0.26258 -0.06995,-0.36038 C 4.25227,288.8751 4.2333333,288.7979 3.96875,288.7979"
       inkscape:connector-curvature="0"
       sodipodi:nodetypes="cccccccsscccssccccccc" />
    <g
       id="g1583"
       transform="translate(0.12913977,0.06260333)">
      <path
         sodipodi:nodetypes="csssssc"
         inkscape:connector-curvature="0"
         id="path1573"
         d="m 3.5750269,290.3228 c 0,0 -0.1736518,0.14366 -0.2791704,0.17248 -0.1139278,0.0311 -0.2434411,0.0338 -0.3542689,-0.007 -0.1010411,-0.0372 -0.1831737,-0.1202 -0.249903,-0.20471 -0.08867,-0.1123 -0.1677697,-0.2444 -0.1875718,-0.38611 -0.024034,-0.172 -0.054996,-0.33363 0.090477,-0.51309 0.1240711,-0.15306 0.2723147,-0.1633 0.4865994,-0.19168"
         style="fill:none;fill-rule:evenodd;stroke:#502d16;stroke-width:0.26458332px;stroke-linecap:round;stroke-linejoin:round;stroke-opacity:1" />
      <path
         sodipodi:nodetypes="cc"
         inkscape:connector-curvature="0"
         id="path1575"
         d="m 2.6458333,290.12082 c -0.00523,-0.0953 0.280588,-0.22919 0.3971459,-0.38379"
         style="fill:none;fill-rule:evenodd;stroke:#502d16;stroke-width:0.26458332px;stroke-linecap:round;stroke-linejoin:round;stroke-opacity:1" />
    </g>
    <g
       transform="matrix(-1,0,0,1,7.8083602,0.06260333)"
       id="g1589">
      <path
         style="fill:none;fill-rule:evenodd;stroke:#502d16;stroke-width:0.26458332px;stroke-linecap:round;stroke-linejoin:round;stroke-opacity:1"
         d="m 3.5750269,290.3228 c 0,0 -0.1736518,0.14366 -0.2791704,0.17248 -0.1139278,0.0311 -0.2434411,0.0338 -0.3542689,-0.007 -0.1010411,-0.0372 -0.1831737,-0.1202 -0.249903,-0.20471 -0.08867,-0.1123 -0.1677697,-0.2444 -0.1875718,-0.38611 -0.024034,-0.172 -0.054996,-0.33363 0.090477,-0.51309 0.1240711,-0.15306 0.2723147,-0.1633 0.4865994,-0.19168"
         id="path1585"
         inkscape:connector-curvature="0"
         sodipodi:nodetypes="csssssc" />
      <path
         style="fill:none;fill-rule:evenodd;stroke:#502d16;stroke-width:0.26458332px;stroke-linecap:round;stroke-linejoin:round;stroke-opacity:1"
         d="m 2.6458333,290.12082 c -0.00523,-0.0953 0.280588,-0.22919 0.3971459,-0.38379"
         id="path1587"
         inkscape:connector-curvature="0"
         sodipodi:nodetypes="cc" />
    </g>
  </g>
  <g
     inkscape:groupmode="layer"
     id="layer2"
     inkscape:label="Layer 2">
    <path
       style="fill:#483737;fill-rule:evenodd;stroke:#241c1c;stroke-width:0.99999994px;stroke-linecap:butt;stroke-linejoin:miter;stroke-opacity:1"
       d="M 9.5878906 14.732422 C 9.1820892 14.879184 9.0078713 15.337609 9.0703125 15.740234 C 9.0315875 16.400811 9.1211458 17.056441 9.1230469 17.716797 C 9.1307193 18.062015 9.1676007 18.4205 9.046875 18.751953 C 9.0036561 19.151485 9.0838132 19.655734 9.5546875 19.746094 C 9.9036059 19.861683 10.502569 19.875336 10.570312 19.404297 C 10.665942 18.807392 10.720294 18.203143 10.689453 17.597656 C 10.693573 17.443792 10.912691 17.856259 11.037109 17.904297 C 11.429696 18.205049 11.856011 18.464912 12.296875 18.689453 C 12.651629 18.843824 13.028618 18.94327 13.392578 19.074219 C 13.893435 19.169667 14.5471 19.263826 15 19 C 15.4529 19.263826 16.106565 19.169667 16.607422 19.074219 C 16.971382 18.94327 17.348371 18.843824 17.703125 18.689453 C 18.143989 18.464912 18.570304 18.205051 18.962891 17.904297 C 19.087309 17.856259 19.306427 17.443792 19.310547 17.597656 C 19.279706 18.203143 19.334058 18.807392 19.429688 19.404297 C 19.497431 19.875336 20.096394 19.861683 20.445312 19.746094 C 20.916187 19.655734 20.996344 19.151485 20.953125 18.751953 C 20.832399 18.4205 20.869281 18.062015 20.876953 17.716797 C 20.878854 17.056441 20.968413 16.400811 20.929688 15.740234 C 20.992129 15.337609 20.817911 14.879185 20.412109 14.732422 C 20.041554 14.700062 19.696448 14.872753 19.384766 15.052734 C 19.010331 15.224799 18.689879 15.486824 18.359375 15.728516 C 17.931371 16.069313 17.381836 16.174316 16.914062 16.441406 C 16.572547 16.570345 15.380726 16.97291 15 17 C 14.619274 16.97291 13.427453 16.570345 13.085938 16.441406 C 12.618164 16.174316 12.068629 16.069313 11.640625 15.728516 C 11.310121 15.486824 10.989669 15.224799 10.615234 15.052734 C 10.303552 14.872753 9.9584457 14.70006 9.5878906 14.732422 z "
       transform="scale(0.26458333)"
       id="path1611" />
    <path
       id="path1623"
       style="fill:#483737;fill-rule:evenodd;stroke:#241c1c;stroke-width:0.26458332px;stroke-linecap:round;stroke-linejoin:round;stroke-opacity:1"
       d="m 3.96875,3.175 c 0.2645833,0 0.3956808,-0.071626 0.6456541,-0.055707 0.085183,0.094741 0.034292,0.2287489 0.061647,0.3413227 0.00954,0.1458479 -0.016595,0.2967375 0.013321,0.4392093 0.00795,-0.1567585 -0.016289,-0.3198615 0.043679,-0.4696904 0.080487,-0.00648 0.2146029,-0.100978 0.2624367,-0.027853 0.017845,0.1028614 0.00461,0.2082312 0.015849,0.3120008 0.00682,0.1632983 0.049462,0.3347695 -0.020811,0.4907297 C 4.9561558,4.2881891 4.8732468,4.3877238 4.7727759,4.35316 4.661109,4.2940266 4.6427521,4.156195 4.5964811,4.0502598 4.6744211,4.2178542 4.7401281,4.396263 4.7593321,4.5814799 4.7808751,4.7249471 4.6226655,6.2681623 4.4979167,6.35 c -0.2287413,0.1736008 0,-0.2645833 -0.2645834,-0.2645833 -0.1649698,0.6183109 -0.3382167,0.7884439 -0.5291666,0 -0.2645833,0 -0.035842,0.4381841 -0.2645834,0.2645833 C 3.3148345,6.2681623 3.1566249,4.7249471 3.1781679,4.5814799 3.1973719,4.396263 3.2630794,4.2178542 3.3410189,4.0502598 3.2947479,4.156195 3.276391,4.2940266 3.1647241,4.35316 3.0642532,4.3877238 2.9813442,4.2881891 2.9469742,4.2050121 2.8767012,4.0490519 2.9193432,3.8775807 2.9261632,3.7142824 c 0.011239,-0.1037696 -0.002,-0.2091394 0.015849,-0.3120008 0.047834,-0.073125 0.1819497,0.021373 0.2624367,0.027853 0.059968,0.1498289 0.035729,0.3129319 0.043679,0.4696904 0.029916,-0.1424718 0.00378,-0.2933614 0.013321,-0.4392093 C 3.2888039,3.3480419 3.2379129,3.214034 3.3230959,3.119293 3.5730692,3.103374 3.7041667,3.175 3.96875,3.175"
       inkscape:connector-curvature="0"
       sodipodi:nodetypes="cccccccccccccccccccccccccc" />
    <path
       style="fill:#ffccaa;fill-rule:evenodd;stroke:#ffccaa;stroke-width:0.22681141px;stroke-linecap:butt;stroke-linejoin:miter;stroke-opacity:1"
       d="M 3.8593049,2.4060287 C 3.7939926,2.4993439 3.6650242,2.5741891 3.6710707,2.6925122 3.6793225,2.8539924 3.8215673,3.04465 3.9661155,3.0481904 4.123753,3.0520514 4.3045183,2.8528096 4.3027447,2.6764307 4.3015264,2.5552493 4.1369742,2.5188269 4.0663862,2.4268971 4.0278307,2.3766848 4.02453,2.2665342 3.9654188,2.2635675 3.9102202,2.2607972 3.8933686,2.35736 3.8593049,2.4060287 Z"
       id="path1631"
       inkscape:connector-curvature="0"
       sodipodi:nodetypes="aaaaaaa" />
    <path
       style="fill:#aa0000;fill-rule:evenodd;stroke:#550000;stroke-width:0.26458332px;stroke-linecap:round;stroke-linejoin:round;stroke-opacity:1"
       d="m 3.7041667,2.6458333 c 0.1699241,0.063915 0.3804725,0.071392 0.5291666,0 0.1873525,-0.045359 0.2539061,0.2444918 0.2393883,0.4300999 0.022521,0.3322503 -0.165349,0.6271093 -0.3469826,0.8885872 -0.1198508,0.1840463 -0.2425113,0.3881347 -0.2219985,0.61707 -0.00316,0.1879161 0.018187,0.3811214 0.1074316,0.5493855 0.033509,0.1262216 0.029766,0.2798667 -0.05743,0.3840366 C 3.8800904,5.5712913 3.996783,5.39609 3.9571477,5.3385881 3.9265598,5.1300709 3.7685937,4.9673727 3.7365169,4.7584479 3.6897508,4.5488947 3.7193775,4.3252988 3.816524,4.1340678 3.9041775,3.9198361 3.8884622,3.6581747 3.7387056,3.4749156 3.6472528,3.3212755 3.5939618,3.1456186 3.568864,2.9696495 3.5668456,2.8502315 3.5543876,2.6251366 3.7041667,2.6458333 Z"
       id="path1626"
       inkscape:connector-curvature="0"
       sodipodi:nodetypes="ccccccccccccc" />
  </g>
</svg>
