<?xml version="1.0" encoding="UTF-8" standalone="no"?>
<!-- Created with Inkscape (http://www.inkscape.org/) -->

<svg
   xmlns:dc="http://purl.org/dc/elements/1.1/"
   xmlns:cc="http://creativecommons.org/ns#"
   xmlns:rdf="http://www.w3.org/1999/02/22-rdf-syntax-ns#"
   xmlns:svg="http://www.w3.org/2000/svg"
   xmlns="http://www.w3.org/2000/svg"
   xmlns:sodipodi="http://sodipodi.sourceforge.net/DTD/sodipodi-0.dtd"
   xmlns:inkscape="http://www.inkscape.org/namespaces/inkscape"
   width="32"
   height="32"
   viewBox="0 0 8.4666665 8.466667"
   version="1.1"
   id="svg8"
   inkscape:version="0.92.4 (5da689c313, 2019-01-14)"
   sodipodi:docname="reindeer-npc.svg"
   inkscape:export-filename="/home/tobias/devel/krampus2019/data/img/sprites/reindeer-fpv.png"
   inkscape:export-xdpi="96"
   inkscape:export-ydpi="96"
   style="shape-rendering:crispEdges">
  <defs
     id="defs2" />
  <sodipodi:namedview
     id="base"
     pagecolor="#ffffff"
     bordercolor="#666666"
     borderopacity="1.0"
     inkscape:pageopacity="0.0"
     inkscape:pageshadow="2"
     inkscape:zoom="17.521221"
     inkscape:cx="16.172287"
     inkscape:cy="16.235001"
     inkscape:document-units="mm"
     inkscape:current-layer="layer1"
     showgrid="false"
     units="px"
     showguides="false"
     inkscape:guide-bbox="true"
     inkscape:window-width="1366"
     inkscape:window-height="753"
     inkscape:window-x="0"
     inkscape:window-y="15"
     inkscape:window-maximized="0">
    <sodipodi:guide
       position="44.147082,-0.91639003"
       orientation="0,1"
       id="guide828"
       inkscape:locked="false" />
    <inkscape:grid
       type="xygrid"
       id="grid858"
       dotted="true" />
  </sodipodi:namedview>
  <metadata
     id="metadata5">
    <rdf:RDF>
      <cc:Work
         rdf:about="">
        <dc:format>image/svg+xml</dc:format>
        <dc:type
           rdf:resource="http://purl.org/dc/dcmitype/StillImage" />
        <dc:title></dc:title>
      </cc:Work>
    </rdf:RDF>
  </metadata>
  <g
     inkscape:label="Layer 1"
     inkscape:groupmode="layer"
     id="layer1"
     transform="translate(0,-288.53332)">
    <path
       inkscape:connector-curvature="0"
       id="path891"
       d="m 2.1075429,290.71847 c -0.087923,0.0975 -0.1641043,0.2067 -0.2729167,0.28348 -0.028328,0.0348 -0.1301377,0.0648 -0.1179211,0.11367 m 0.2035607,-1.04294 c -0.1766231,0.12407 -0.2824295,0.32988 -0.2989378,0.54323 -0.024424,0.17787 -0.00225,0.36495 0.073212,0.52821 0.066805,0.12074 0.1328181,0.24332 0.2302916,0.34308 0.083809,0.11461 0.2275731,0.1454 0.3510359,0.19799 0.058266,0.0124 0.1408149,0.0394 0.192657,0.0176"
       style="fill:none;fill-rule:evenodd;stroke:#2b1100;stroke-width:0.26499999;stroke-linecap:round;stroke-linejoin:round;stroke-miterlimit:4;stroke-dasharray:none;stroke-opacity:1" />
    <path
       style="fill:#502d16;fill-rule:evenodd;stroke:none;stroke-width:0.06388486px;stroke-linecap:butt;stroke-linejoin:miter;stroke-opacity:1"
       d="m -6.8639622,281.03538 c 0,0 -1.386072,-0.75444 -1.865017,-1.34317 -0.662252,-0.81405 -0.979123,-1.85826 -1.256922,-2.85771 -0.1901318,-0.68405 -0.2598038,-1.40051 -0.2694758,-2.10866 -0.0072,-0.52744 0.0206,-1.06449 0.157749,-1.57512 0.1843008,-0.68619 0.3468408,-1.46204 0.8801868,-1.9497 0.563939,-0.51564 1.446248,-1.02176 2.183978,-0.78634 0.253762,0.081 0.484633,0.39582 0.435743,0.64927 -0.121604,0.63043 -1.028668,0.26105 -1.613446,1.13089 -0.273863,0.40736 -0.442157,0.87184 -0.545257,1.35683 1.352996,-0.0663 2.407965,-1.23687 2.539009,0.0273 0.05812,0.56066 -0.989415,0.77209 -2.690242,1.35745 -0.0028,0.0849 -0.0049,0.16942 -0.0063,0.25332 -0.01118,0.66281 0.155207,1.32969 0.389478,1.95288 0.08808,0.23432 1.844583,-1.5623 2.308837,-0.70066 0.4508739,0.8368 -1.73418,1.78112 -1.584734,1.96213 0.394916,0.47832 1.415391,1.22524 1.415391,1.22524 z"
       id="path819"
       inkscape:connector-curvature="0"
       sodipodi:nodetypes="caaaaaaascscscsccc" />
    <path
       sodipodi:nodetypes="caaaaaaascscscsccc"
       inkscape:connector-curvature="0"
       id="path835"
       d="m 1.2514237,281.03538 c 0,0 1.386073,-0.75444 1.865018,-1.34317 0.662251,-0.81405 0.979122,-1.85826 1.256921,-2.85771 0.190132,-0.68405 0.259805,-1.40051 0.269476,-2.10866 0.0072,-0.52744 -0.0206,-1.06449 -0.157749,-1.57512 -0.184301,-0.68619 -0.346841,-1.46204 -0.880187,-1.9497 -0.563939,-0.51564 -1.446248,-1.02176 -2.183978,-0.78634 -0.253762,0.081 -0.48463303,0.39582 -0.43574303,0.64927 0.12160403,0.63043 1.02866803,0.26105 1.61344603,1.13089 0.273863,0.40736 0.442157,0.87184 0.545257,1.35683 -1.352996,-0.0663 -2.40796503,-1.23687 -2.53900803,0.0273 -0.05812,0.56066 0.98941403,0.77209 2.69024103,1.35745 0.0028,0.0849 0.0049,0.16942 0.0063,0.25332 0.01118,0.66281 -0.155207,1.32969 -0.389478,1.95288 -0.08808,0.23432 -1.844583,-1.5623 -2.30883703,-0.70066 -0.450874,0.8368 1.73418003,1.78112 1.58473403,1.96213 -0.394916,0.47832 -1.41539103,1.22524 -1.41539103,1.22524 z"
       style="fill:#502d16;fill-rule:evenodd;stroke:none;stroke-width:0.06388486px;stroke-linecap:butt;stroke-linejoin:miter;stroke-opacity:1" />
    <path
       style="opacity:1;fill:#a05a2c;fill-opacity:1;stroke:none;stroke-width:0.56132376;stroke-linecap:round;stroke-linejoin:round;stroke-miterlimit:4;stroke-dasharray:none;stroke-opacity:1"
       d="m -1.0568123,278.11596 c -0.02083,0.002 0.01475,0.004 0,0 z m -0.0062,0.002 c -0.07765,0.0168 -0.04141,0.009 0,0 z m -0.03951,0.0118 c -0.148556,0.001 -0.329286,0.0435 -0.44124,0.0828 -0.166428,0.0211 -0.359721,0.11993 -0.546562,0.16416 -0.110743,0.0623 -0.195069,0.0873 -0.305043,0.15131 -0.327837,-0.0313 -0.673258,0.0463 -0.97929,-0.0925 -0.242401,-0.0674 -0.432024,-0.11489 -0.681615,-0.14118 -0.158544,-0.0145 -0.318804,-0.024 -0.474144,-0.0352 0.247565,0.0632 0.507252,0.22595 0.753905,0.29672 -0.276569,0.0126 -0.571969,-0.0289 -0.858847,-0.0145 -0.303758,0.0209 -0.588373,0.0786 -0.882987,0.12924 -0.03445,0.0377 -0.273119,0.0651 -0.138228,0.0942 0.220197,0.0159 0.442974,0.014 0.661414,0.0352 -0.470452,0.13143 -0.967092,0.32907 -1.3159679,0.73448 -0.02239,0.004 -0.04423,0.008 -0.05984,0.007 -0.09002,0.0128 -0.182685,0.009 -0.267564,-0.0328 -0.05738,-0.0223 -0.114951,-0.0497 -0.16961,-0.0736 -0.0032,0.0764 0.04378,0.15877 0.07915,0.22448 0.03621,0.057 0.104356,0.0904 0.118409,0.16325 -0.124524,-0.0308 -0.250058,-0.0562 -0.37403,-0.0901 -0.05812,-0.0334 -0.04131,0.0278 -0.0051,0.0524 0.09994,0.0951 0.117665,0.26374 0.214458,0.36157 0.05479,0.0321 0.0036,0.0335 -0.02897,0.0262 -0.153571,-0.0624 -0.317101,-0.0781 -0.473636,-0.12349 -0.07499,-0.0463 -0.0017,0.0299 0.01677,0.0562 0.09869,0.18837 0.240697,0.33503 0.369584,0.49278 -0.16238,0.008 -0.32726,-0.0199 -0.487485,0.0231 0.06784,0.0542 0.139393,0.10201 0.203659,0.16235 0.07219,0.055 0.131879,0.12861 0.196925,0.19439 0.03244,0.0223 0.05262,0.0544 0.04358,0.0847 -0.09693,0.5455 -0.107454,1.11768 -0.06937,1.66533 0.151544,1.22252 0.779715,2.42097 1.7565709,2.91995 0.526199,0.24716 -0.10429,0.68666 -0.251175,0.98722 -0.18658,0.21016 -0.137365,0.28816 0.08004,0.24911 h 5.44897997 c -0.07805,-0.41219 -0.797554,-0.7317 -0.5256,-1.1411 0.376503,-0.24396 0.771467,-0.4778 1.049801,-0.88141 0.64283803,-0.84465 0.95635803,-2.01526 0.84868403,-3.1476 -0.0098,-0.23554 -0.03266,-0.4787 -0.07293,-0.71861 0.08304,-0.0617 0.169968,-0.11763 0.264388,-0.14995 -0.06973,7.7e-4 -0.139521,-0.001 -0.209249,1.5e-4 -0.09372,0.0357 -0.07631,-0.0709 -0.0094,-0.10899 0.09492,-0.0922 0.199954,-0.16948 0.314444,-0.2225 0.01888,-0.021 0.128176,-0.0373 0.09008,-0.0576 -0.110576,0.009 -0.222308,-0.002 -0.329691,-0.0361 -0.03544,-0.0264 -0.152569,-0.0123 -0.134671,-0.0785 0.07603,-0.0699 0.160104,-0.12686 0.236055,-0.19712 0.04452,-0.0482 0.100815,-0.0854 0.137594,-0.14057 -0.05806,-0.0208 -0.124458,-0.0164 -0.186126,-0.0185 -0.120224,0.008 -0.239585,-0.0116 -0.359801,-0.0104 0.07502,-0.0745 0.159517,-0.13348 0.238978,-0.20074 0.06429,-0.06 0.129486,-0.1182 0.203405,-0.16083 0.0546,-0.0207 0.01673,-0.0469 -0.02109,-0.0379 -0.145528,0.0259 -0.292701,0.0339 -0.439333,0.0478 -0.06171,-0.0171 -0.16176703,0.0594 -0.19781403,-0.003 0.04666,-0.097 0.12257603,-0.18032 0.21344103,-0.21419 -0.08655,0.0176 -0.17305003,0.0362 -0.26057603,0.0455 -0.08637,-1.6e-4 -0.177138,0.008 -0.259814,-0.0277 -0.066,-0.0645 -0.136744,-0.12401 -0.213315,-0.17686 -0.122021,-0.16301 -0.767793,-0.261 -0.413542,-0.34192 -0.09487,-0.10376 -0.234897,-0.13859 -0.395248,-0.14104 -0.155414,-0.0437 -0.385124,0.0358 -0.484054,-0.047 0.156135,-0.0651 0.33412,-0.115 0.464362,-0.16476 -0.206407,-0.0626 -0.453098,-0.0808 -0.69152397,-0.0704 -0.199683,0.008 -0.414895,0.0513 -0.592681,0.10279 0.02115,-0.0594 0.08643,-0.10091 0.128699,-0.13665 0.116823,-0.10162 0.240161,-0.1894 0.375047,-0.26015 0.02587,-0.03 0.100438,-0.0369 0.09872,-0.0588 z m -4.623292,0.62324 h 0.0099 z"
       id="path815"
       inkscape:connector-curvature="0"
       sodipodi:nodetypes="cccccccccccccccccccccccccccccccccccccccccccccccccccccccccccccccccccccccccc" />
    <path
       style="fill:#a05a2c;fill-rule:evenodd;stroke:none;stroke-width:0.07095328px;stroke-linecap:butt;stroke-linejoin:miter;stroke-opacity:1"
       d="m -6.6854502,281.27085 c -0.298467,-0.1979 -0.750819,-0.47474 -1.110168,-0.55339 -0.831905,-0.18206 -1.689975,-0.0926 -2.2824828,0.0283 -0.592508,0.12094 -1.271453,0.53328 -1.271453,0.53328 0,0 0.972604,0.95779 1.4017468,1.16838 0.429143,0.21059 1.297848,0.5165 1.780186,0.59748 0.658302,0.064 0.988011,-0.0484 1.647666,-0.2973 0.106458,-0.44857 -0.125531,-0.92296 -0.150004,-1.38407 z"
       id="path837"
       inkscape:connector-curvature="0"
       sodipodi:nodetypes="cszczcccc" />
    <path
       sodipodi:nodetypes="cszczcccc"
       inkscape:connector-curvature="0"
       id="path842"
       d="m 1.0729117,281.27085 c 0.298467,-0.1979 0.750819,-0.47474 1.110169,-0.55339 0.831905,-0.18206 1.689974,-0.0926 2.282482,0.0283 0.592508,0.12094 1.271453,0.53328 1.271453,0.53328 0,0 -0.972604,0.95779 -1.401747,1.16838 -0.429142,0.21059 -1.297848,0.5165 -1.780185,0.59748 -0.658303,0.064 -0.988011,-0.0484 -1.64766703,-0.2973 -0.106458,-0.44857 0.12553103,-0.92296 0.15000403,-1.38407 z"
       style="fill:#a05a2c;fill-rule:evenodd;stroke:none;stroke-width:0.07095328px;stroke-linecap:butt;stroke-linejoin:miter;stroke-opacity:1" />
    <path
       style="fill:none;fill-rule:evenodd;stroke:#552200;stroke-width:0.14190657;stroke-linecap:butt;stroke-linejoin:miter;stroke-miterlimit:4;stroke-dasharray:none;stroke-opacity:1"
       d="m -4.0801223,279.95379 c -0.269131,0.67467 -0.466713,1.3615 -0.55165,2.06748"
       id="path846"
       inkscape:connector-curvature="0"
       sodipodi:nodetypes="cc" />
    <path
       style="fill:none;fill-rule:evenodd;stroke:#552200;stroke-width:0.14190657;stroke-linecap:butt;stroke-linejoin:miter;stroke-miterlimit:4;stroke-dasharray:none;stroke-opacity:1"
       d="m -3.5560543,281.62747 c -0.169311,0.5228 -0.317717,1.05804 -0.33099,1.67367"
       id="path848"
       inkscape:connector-curvature="0"
       sodipodi:nodetypes="cc" />
    <path
       style="fill:none;fill-rule:evenodd;stroke:#552200;stroke-width:0.14190657;stroke-linecap:butt;stroke-linejoin:miter;stroke-miterlimit:4;stroke-dasharray:none;stroke-opacity:1"
       d="m -1.3770343,281.23366 c 0.08429,0.64609 0.12973,1.29171 0.08275,1.93621"
       id="path850"
       inkscape:connector-curvature="0"
       sodipodi:nodetypes="cc" />
    <path
       style="fill:none;fill-rule:evenodd;stroke:#552200;stroke-width:0.14190657;stroke-linecap:butt;stroke-linejoin:miter;stroke-miterlimit:4;stroke-dasharray:none;stroke-opacity:1"
       d="m -2.6734133,280.64295 c 0.139752,0.56282 0.09559,1.18033 0.02758,1.80495"
       id="path852"
       inkscape:connector-curvature="0"
       sodipodi:nodetypes="cc" />
    <path
       style="fill:none;fill-rule:evenodd;stroke:#552200;stroke-width:0.14190657;stroke-linecap:butt;stroke-linejoin:miter;stroke-miterlimit:4;stroke-dasharray:none;stroke-opacity:1"
       d="m -0.63230633,280.57732 c 0.407951,0.4473 0.616103,1.01011 0.799893,1.57522"
       id="path854"
       inkscape:connector-curvature="0"
       sodipodi:nodetypes="cc" />
    <path
       style="fill:none;fill-rule:evenodd;stroke:#552200;stroke-width:0.14190657;stroke-linecap:butt;stroke-linejoin:miter;stroke-miterlimit:4;stroke-dasharray:none;stroke-opacity:1"
       d="m -0.77021933,283.66213 c -0.112086,0.58052 -0.36822097,1.12295 -0.71714497,1.64086"
       id="path856"
       inkscape:connector-curvature="0"
       sodipodi:nodetypes="cc" />
    <path
       style="fill:none;fill-rule:evenodd;stroke:#552200;stroke-width:0.14190657;stroke-linecap:butt;stroke-linejoin:miter;stroke-miterlimit:4;stroke-dasharray:none;stroke-opacity:1"
       d="m -2.5630823,283.20269 c 0.008,0.52507 -0.01669,1.05015 -0.165496,1.57522"
       id="path858"
       inkscape:connector-curvature="0"
       sodipodi:nodetypes="cc" />
    <path
       style="fill:none;fill-rule:evenodd;stroke:#552200;stroke-width:0.14190657;stroke-linecap:butt;stroke-linejoin:miter;stroke-miterlimit:4;stroke-dasharray:none;stroke-opacity:1"
       d="m -5.1282583,283.23551 c -0.07589,0.35412 0.01061,0.80485 0.303408,1.37832"
       id="path860"
       inkscape:connector-curvature="0"
       sodipodi:nodetypes="cc" />
    <path
       style="fill:none;fill-rule:evenodd;stroke:#552200;stroke-width:0.14190657;stroke-linecap:butt;stroke-linejoin:miter;stroke-miterlimit:4;stroke-dasharray:none;stroke-opacity:1"
       d="m -5.5144133,281.23366 c -0.299637,0.42966 -0.472216,0.96009 -0.615249,1.51396"
       id="path862"
       inkscape:connector-curvature="0"
       sodipodi:nodetypes="cc" />
    <path
       style="fill:none;fill-rule:evenodd;stroke:#552200;stroke-width:0.14190657;stroke-linecap:butt;stroke-linejoin:miter;stroke-miterlimit:4;stroke-dasharray:none;stroke-opacity:1"
       d="m -2.0093783,279.12941 c 0.111989,0.10608 0.06347,0.98296 0,1.54241"
       id="path864"
       inkscape:connector-curvature="0"
       sodipodi:nodetypes="cc" />
    <path
       style="fill:none;fill-rule:evenodd;stroke:#552200;stroke-width:0.14190657;stroke-linecap:butt;stroke-linejoin:miter;stroke-miterlimit:4;stroke-dasharray:none;stroke-opacity:1"
       d="m -4.6317723,279.10055 c -0.312236,0.30701 -0.615603,0.68673 -0.744729,1.18141"
       id="path866"
       inkscape:connector-curvature="0"
       sodipodi:nodetypes="cc" />
    <path
       style="fill:none;fill-rule:evenodd;stroke:#552200;stroke-width:0.14190657;stroke-linecap:butt;stroke-linejoin:miter;stroke-miterlimit:4;stroke-dasharray:none;stroke-opacity:1"
       d="m -4.0525393,284.97481 c 0.129216,0.26062 0.220904,0.52867 0.193078,0.82043"
       id="path868"
       inkscape:connector-curvature="0"
       sodipodi:nodetypes="cc" />
    <path
       style="fill:none;fill-rule:evenodd;stroke:#552200;stroke-width:0.14190657;stroke-linecap:butt;stroke-linejoin:miter;stroke-miterlimit:4;stroke-dasharray:none;stroke-opacity:1"
       d="m -1.8459373,285.95933 -0.124122,0.92439"
       id="path870"
       inkscape:connector-curvature="0" />
    <path
       style="fill:#aa4400;fill-rule:evenodd;stroke:#552200;stroke-width:0.99999994px;stroke-linecap:butt;stroke-linejoin:miter;stroke-opacity:1"
       d="m 9.1015625,11.123047 c -0.085129,-0.0059 -0.1634542,-0.0044 -0.2324219,0.0078 -0.5517415,0.09751 -1.9479598,0.603183 -3.2675781,1.242188 -1.3196183,0.639005 -2.3722001,1.987934 -1.5820313,3.287109 0.6984443,1.338255 2.4866735,0.97556 3.6152344,0.472656 1.4153012,0.523578 3.3928024,1.083335 4.0312504,2.44336 -0.328252,1.312276 -0.0027,2.962215 1.064453,3.826172 -0.0369,0.285588 -0.06768,0.57226 -0.123047,0.853515 0.08677,2.301922 0.294698,5.178931 0.291746,7.481041 0.231787,0.346583 1.096214,0.116213 1.369141,-0.04101 -0.20682,-1.907339 0.0933,-4.40848 0.272707,-6.309166 0.07663,-0.464444 0.152228,-0.932034 0.220703,-1.400391 1.737657,-0.05626 3.358268,-1.095022 5.097656,-1.304687 0.42972,-0.08746 0.860362,-0.136298 1.292969,-0.16211 0.148662,0.75869 0.54569,1.473643 0.917968,2.148438 0.475214,1.088353 1.281279,2.012799 1.679688,3.130859 0.331487,1.429455 -0.821485,2.548662 -1.248047,3.800781 0.34272,0.238867 1.993169,0.4543 1.873047,-0.664062 0.361032,-1.236926 1.174645,-2.250934 1.728516,-3.392578 -0.385816,-1.645732 -0.307746,-3.345992 -0.414063,-5.021485 0.800879,-0.297968 1.414351,-1.045576 1.375,-1.953125 C 26.926935,18.227874 26.322932,17.918253 24.615234,16.822266 22.907536,15.726278 19.177527,15.585821 16.435547,15.169922 14.286518,14.920473 12.789087,13.16971 10.931641,12.25 10.621757,11.629888 9.6974625,11.16435 9.1015625,11.123047 Z"
       transform="matrix(0.26458333,0,0,0.26458333,0,288.53332)"
       id="path861"
       inkscape:connector-curvature="0"
       sodipodi:nodetypes="ccsccccccccccccccccccsccc" />
    <path
       style="fill:none;fill-rule:evenodd;stroke:#2b1100;stroke-width:0.26499999;stroke-linecap:round;stroke-linejoin:round;stroke-miterlimit:4;stroke-dasharray:none;stroke-opacity:1"
       d="m 2.8295061,290.71847 c 0.087923,0.0975 0.1641043,0.2067 0.2729167,0.28348 0.028328,0.0348 0.1301377,0.0648 0.1179211,0.11367 m -0.2035607,-1.04294 c 0.1766231,0.12407 0.2824295,0.32988 0.2989378,0.54323 0.024424,0.17787 0.00225,0.36495 -0.073212,0.52821 -0.066805,0.12074 -0.1328181,0.24332 -0.2302916,0.34308 -0.083809,0.11461 -0.2275731,0.1454 -0.3510359,0.19799 -0.058266,0.0124 -0.1408149,0.0394 -0.192657,0.0176"
       id="path886"
       inkscape:connector-curvature="0" />
  </g>
</svg>
