<?xml version="1.0" encoding="UTF-8" standalone="no"?>
<!-- Created with Inkscape (http://www.inkscape.org/) -->

<svg
   xmlns:dc="http://purl.org/dc/elements/1.1/"
   xmlns:cc="http://creativecommons.org/ns#"
   xmlns:rdf="http://www.w3.org/1999/02/22-rdf-syntax-ns#"
   xmlns:svg="http://www.w3.org/2000/svg"
   xmlns="http://www.w3.org/2000/svg"
   xmlns:sodipodi="http://sodipodi.sourceforge.net/DTD/sodipodi-0.dtd"
   xmlns:inkscape="http://www.inkscape.org/namespaces/inkscape"
   width="32"
   height="32"
   viewBox="0 0 8.4666665 8.466667"
   version="1.1"
   id="svg8"
   inkscape:version="0.92.4 (5da689c313, 2019-01-14)"
   sodipodi:docname="reindeer-npc-f2r3.svg"
   inkscape:export-filename="/home/tobias/devel/krampus2019/data/img/sprites/reindeer-fpv.png"
   inkscape:export-xdpi="96"
   inkscape:export-ydpi="96"
   shape-rendering="crispEdges">
  <defs
     id="defs2" />
  <sodipodi:namedview
     id="base"
     pagecolor="#ffffff"
     bordercolor="#666666"
     borderopacity="1.0"
     inkscape:pageopacity="0.0"
     inkscape:pageshadow="2"
     inkscape:zoom="18.28125"
     inkscape:cx="14.353101"
     inkscape:cy="15.10415"
     inkscape:document-units="mm"
     inkscape:current-layer="layer1"
     showgrid="true"
     units="px"
     showguides="true"
     inkscape:guide-bbox="true"
     inkscape:window-width="1366"
     inkscape:window-height="753"
     inkscape:window-x="0"
     inkscape:window-y="15"
     inkscape:window-maximized="0">
    <sodipodi:guide
       position="44.147082,-0.91639003"
       orientation="0,1"
       id="guide828"
       inkscape:locked="false" />
    <inkscape:grid
       type="xygrid"
       id="grid858"
       dotted="true" />
  </sodipodi:namedview>
  <metadata
     id="metadata5">
    <rdf:RDF>
      <cc:Work
         rdf:about="">
        <dc:format>image/svg+xml</dc:format>
        <dc:type
           rdf:resource="http://purl.org/dc/dcmitype/StillImage" />
        <dc:title></dc:title>
      </cc:Work>
    </rdf:RDF>
  </metadata>
  <g
     inkscape:label="Layer 1"
     inkscape:groupmode="layer"
     id="layer1"
     transform="translate(0,-288.53332)">
    <g
       id="g5206"
       transform="translate(1.7505016,-0.52916663)">
      <path
         style="fill:none;fill-rule:evenodd;stroke:#2b1100;stroke-width:0.26499999;stroke-linecap:round;stroke-linejoin:round;stroke-miterlimit:4;stroke-dasharray:none;stroke-opacity:1"
         d="m 2.1218501,290.70794 c -0.087923,0.0975 -0.1641043,0.2067 -0.2729167,0.28348 -0.028328,0.0348 -0.1301377,0.0648 -0.1179211,0.11367 m 0.2035607,-1.04294 c -0.1766231,0.12407 -0.2824295,0.32988 -0.2989378,0.54323 -0.024424,0.17787 -0.00225,0.36495 0.073212,0.52821 0.066805,0.12074 0.1328181,0.24332 0.2302916,0.34308 0.083809,0.11461 0.2275731,0.1454 0.3510359,0.19799 0.058266,0.0124 0.1408149,0.0394 0.192657,0.0176"
         id="path891"
         inkscape:connector-curvature="0" />
      <path
         inkscape:connector-curvature="0"
         id="path886"
         d="m 2.8438133,290.70794 c 0.087923,0.0975 0.1641043,0.2067 0.2729167,0.28348 0.028328,0.0348 0.1301377,0.0648 0.1179211,0.11367 m -0.2035607,-1.04294 c 0.1766231,0.12407 0.2824295,0.32988 0.2989378,0.54323 0.024424,0.17787 0.00225,0.36495 -0.073212,0.52821 -0.066805,0.12074 -0.1328181,0.24332 -0.2302916,0.34308 -0.083809,0.11461 -0.2275731,0.1454 -0.3510359,0.19799 -0.058266,0.0124 -0.1408149,0.0394 -0.192657,0.0176"
         style="fill:none;fill-rule:evenodd;stroke:#2b1100;stroke-width:0.26499999;stroke-linecap:round;stroke-linejoin:round;stroke-miterlimit:4;stroke-dasharray:none;stroke-opacity:1" />
    </g>
    <path
       style="fill:#aa4400;fill-opacity:1;fill-rule:evenodd;stroke:#552200;stroke-width:0.26458332px;stroke-linecap:butt;stroke-linejoin:miter;stroke-opacity:1"
       d="m 4.2817273,290.83328 c -0.2660675,0.011 -0.5781625,0.35147 -0.582412,0.59691 -0.025569,1.47683 1.0594311,1.30435 1.0684708,0.1291 -0.020404,-0.48572 -0.2197343,-0.73699 -0.4860588,-0.72601 z"
       id="path5188"
       inkscape:connector-curvature="0"
       sodipodi:nodetypes="sscs" />
    <path
       sodipodi:nodetypes="cccccccccccccccccc"
       inkscape:connector-curvature="0"
       id="path6910"
       d="m 3.5096358,291.66077 c -0.2304044,0.43179 -0.1467156,0.72788 -0.1032347,1.12086 0.032555,0.3369 0.215926,0.52257 0.2977656,0.81649 -0.010746,0.32061 -0.019712,0.64265 0.010183,0.9617 0.018234,0.35124 0.03918,0.7026 0.05232,1.0542 0.070762,0.155 0.2259359,0.0928 0.2668655,-0.0672 0.070735,-0.15128 -0.0024,-0.31398 0.013694,-0.47336 0.017863,-0.4593 -0.025633,-1.38079 -0.025633,-1.38079 l 0.2117366,-0.1049 0.2120879,0.1049 c 0,0 -0.043846,0.92149 -0.025985,1.38079 0.016096,0.15938 -0.05669,0.32208 0.014047,0.47336 0.040929,0.16 0.1957518,0.22218 0.2665141,0.0672 0.013139,-0.3516 0.034437,-0.70296 0.052671,-1.0542 0.029894,-0.31905 0.020577,-0.64109 0.00983,-0.9617 0.081839,-0.29392 0.2652111,-0.47959 0.2977656,-0.81649 0.043481,-0.39298 0.1271697,-0.68907 -0.1032348,-1.12086 -0.2053992,-0.19958 -1.2477851,-0.35367 -1.4473928,0 z"
       style="fill:#aa4400;fill-opacity:1;fill-rule:evenodd;stroke:#552200;stroke-width:0.21809995px;stroke-linecap:butt;stroke-linejoin:miter;stroke-opacity:1" />
    <path
       style="fill:#aa4400;fill-opacity:1;fill-rule:evenodd;stroke:#552200;stroke-width:0.2671169px;stroke-linecap:butt;stroke-linejoin:miter;stroke-opacity:1"
       d="m 3.1477868,291.95842 c -0.3456069,0.43179 -0.2200736,0.72788 -0.1548522,1.12086 0.048833,0.3369 0.3238892,0.52257 0.4466487,0.81649 -0.016119,0.32061 -0.029568,0.64265 0.015275,0.9617 0.027351,0.35124 0.05877,0.7026 0.07848,1.0542 0.1061431,0.155 0.3389041,0.0928 0.4002985,-0.0672 0.1061026,-0.15128 -0.0036,-0.31398 0.020541,-0.47336 0.026794,-0.4593 -0.03845,-1.38079 -0.03845,-1.38079 l 0.3176052,-0.1049 0.3181321,0.1049 c 0,0 -0.065769,0.92149 -0.038978,1.38079 0.024144,0.15938 -0.085035,0.32208 0.02107,0.47336 0.061394,0.16 0.293628,0.22218 0.3997715,0.0672 0.019708,-0.3516 0.051655,-0.70296 0.079006,-1.0542 0.044841,-0.31905 0.030866,-0.64109 0.014745,-0.9617 0.1227585,-0.29392 0.3978169,-0.47959 0.4466487,-0.81649 0.065221,-0.39298 0.1907547,-0.68907 -0.1548523,-1.12086 -0.3080991,-0.19958 -1.8716791,-0.35367 -2.1710908,0 z"
       id="path5212"
       inkscape:connector-curvature="0"
       sodipodi:nodetypes="cccccccccccccccccc" />
  </g>
</svg>
