<?xml version="1.0" encoding="UTF-8" standalone="no"?>
<!-- Created with Inkscape (http://www.inkscape.org/) -->

<svg
   xmlns:dc="http://purl.org/dc/elements/1.1/"
   xmlns:cc="http://creativecommons.org/ns#"
   xmlns:rdf="http://www.w3.org/1999/02/22-rdf-syntax-ns#"
   xmlns:svg="http://www.w3.org/2000/svg"
   xmlns="http://www.w3.org/2000/svg"
   xmlns:sodipodi="http://sodipodi.sourceforge.net/DTD/sodipodi-0.dtd"
   xmlns:inkscape="http://www.inkscape.org/namespaces/inkscape"
   width="32"
   height="32"
   viewBox="0 0 8.4666665 8.466667"
   version="1.1"
   id="svg8"
   inkscape:version="0.92.4 (5da689c313, 2019-01-14)"
   sodipodi:docname="reindeer-npc-f0r3.svg"
   inkscape:export-filename="/home/tobias/devel/krampus2019/data/img/sprites/reindeer-fpv.png"
   inkscape:export-xdpi="96"
   inkscape:export-ydpi="96"
   style="shape-rendering:crispEdges">
  <defs
     id="defs2" />
  <sodipodi:namedview
     id="base"
     pagecolor="#ffffff"
     bordercolor="#666666"
     borderopacity="1.0"
     inkscape:pageopacity="0.0"
     inkscape:pageshadow="2"
     inkscape:zoom="18.28125"
     inkscape:cx="14.353101"
     inkscape:cy="15.10415"
     inkscape:document-units="mm"
     inkscape:current-layer="layer1"
     showgrid="true"
     units="px"
     showguides="true"
     inkscape:guide-bbox="true"
     inkscape:window-width="1366"
     inkscape:window-height="753"
     inkscape:window-x="0"
     inkscape:window-y="15"
     inkscape:window-maximized="0">
    <sodipodi:guide
       position="44.147082,-0.91639003"
       orientation="0,1"
       id="guide828"
       inkscape:locked="false" />
    <inkscape:grid
       type="xygrid"
       id="grid858"
       dotted="true" />
  </sodipodi:namedview>
  <metadata
     id="metadata5">
    <rdf:RDF>
      <cc:Work
         rdf:about="">
        <dc:format>image/svg+xml</dc:format>
        <dc:type
           rdf:resource="http://purl.org/dc/dcmitype/StillImage" />
        <dc:title></dc:title>
      </cc:Work>
    </rdf:RDF>
  </metadata>
  <g
     inkscape:label="Layer 1"
     inkscape:groupmode="layer"
     id="layer1"
     transform="translate(0,-288.53332)">
    <g
       id="g5206"
       transform="translate(1.7505016)">
      <path
         style="fill:none;fill-rule:evenodd;stroke:#2b1100;stroke-width:0.26499999;stroke-linecap:round;stroke-linejoin:round;stroke-miterlimit:4;stroke-dasharray:none;stroke-opacity:1"
         d="m 2.1218501,290.70794 c -0.087923,0.0975 -0.1641043,0.2067 -0.2729167,0.28348 -0.028328,0.0348 -0.1301377,0.0648 -0.1179211,0.11367 m 0.2035607,-1.04294 c -0.1766231,0.12407 -0.2824295,0.32988 -0.2989378,0.54323 -0.024424,0.17787 -0.00225,0.36495 0.073212,0.52821 0.066805,0.12074 0.1328181,0.24332 0.2302916,0.34308 0.083809,0.11461 0.2275731,0.1454 0.3510359,0.19799 0.058266,0.0124 0.1408149,0.0394 0.192657,0.0176"
         id="path891"
         inkscape:connector-curvature="0" />
      <path
         inkscape:connector-curvature="0"
         id="path886"
         d="m 2.8438133,290.70794 c 0.087923,0.0975 0.1641043,0.2067 0.2729167,0.28348 0.028328,0.0348 0.1301377,0.0648 0.1179211,0.11367 m -0.2035607,-1.04294 c 0.1766231,0.12407 0.2824295,0.32988 0.2989378,0.54323 0.024424,0.17787 0.00225,0.36495 -0.073212,0.52821 -0.066805,0.12074 -0.1328181,0.24332 -0.2302916,0.34308 -0.083809,0.11461 -0.2275731,0.1454 -0.3510359,0.19799 -0.058266,0.0124 -0.1408149,0.0394 -0.192657,0.0176"
         style="fill:none;fill-rule:evenodd;stroke:#2b1100;stroke-width:0.26499999;stroke-linecap:round;stroke-linejoin:round;stroke-miterlimit:4;stroke-dasharray:none;stroke-opacity:1" />
    </g>
    <path
       style="fill:#aa4400;fill-opacity:1;fill-rule:evenodd;stroke:#552200;stroke-width:0.26458332px;stroke-linecap:butt;stroke-linejoin:miter;stroke-opacity:1"
       d="m 4.2817273,291.36245 c -0.2660675,0.011 -0.5781625,0.35147 -0.582412,0.59691 -0.025569,1.47683 1.0594311,1.30435 1.0684708,0.1291 -0.020404,-0.48572 -0.2197343,-0.73699 -0.4860588,-0.72601 z"
       id="path5188"
       inkscape:connector-curvature="0"
       sodipodi:nodetypes="sscs" />
    <path
       style="fill:#aa4400;fill-opacity:1;fill-rule:evenodd;stroke:#552200;stroke-width:0.26458332px;stroke-linecap:butt;stroke-linejoin:miter;stroke-opacity:1"
       d="m 3.1682812,292.71911 c -0.339082,0.43179 -0.2159187,0.72788 -0.1519287,1.12086 0.04791,0.3369 0.3177743,0.52257 0.4382161,0.81649 -0.015814,0.32061 -0.029009,0.64265 0.014986,0.9617 0.026835,0.35124 0.057661,0.7026 0.076998,1.0542 0.1041398,0.155 0.3325056,0.0928 0.3927409,-0.0672 0.1041,-0.15128 -0.00353,-0.31398 0.020153,-0.47336 0.026288,-0.4593 -0.037723,-1.38079 -0.037723,-1.38079 l 0.3116088,-0.1049 0.3121258,0.1049 c 0,0 -0.064528,0.92149 -0.038241,1.38079 0.023688,0.15938 -0.083429,0.32208 0.020672,0.47336 0.060235,0.16 0.2880844,0.22218 0.3922239,0.0672 0.019336,-0.3516 0.05068,-0.70296 0.077515,-1.0542 0.043995,-0.31905 0.030283,-0.64109 0.01447,-0.9617 0.1204415,-0.29392 0.3903062,-0.47959 0.4382161,-0.81649 0.06399,-0.39298 0.1871533,-0.68907 -0.1519288,-1.12086 -0.3022822,-0.19958 -1.8363422,-0.35367 -2.1301024,0 z"
       id="path5212"
       inkscape:connector-curvature="0"
       sodipodi:nodetypes="cccccccccccccccccc" />
  </g>
</svg>
