<?xml version="1.0" encoding="UTF-8" standalone="no"?>
<!-- Created with Inkscape (http://www.inkscape.org/) -->

<svg
   xmlns:dc="http://purl.org/dc/elements/1.1/"
   xmlns:cc="http://creativecommons.org/ns#"
   xmlns:rdf="http://www.w3.org/1999/02/22-rdf-syntax-ns#"
   xmlns:svg="http://www.w3.org/2000/svg"
   xmlns="http://www.w3.org/2000/svg"
   xmlns:sodipodi="http://sodipodi.sourceforge.net/DTD/sodipodi-0.dtd"
   xmlns:inkscape="http://www.inkscape.org/namespaces/inkscape"
   width="32"
   height="32"
   viewBox="0 0 8.4666665 8.466667"
   version="1.1"
   id="svg8"
   inkscape:version="0.92.4 (5da689c313, 2019-01-14)"
   sodipodi:docname="reindeer-npc-f0r4.svg"
   inkscape:export-filename="/home/tobias/devel/krampus2019/data/img/sprites/reindeer-fpv.png"
   inkscape:export-xdpi="96"
   inkscape:export-ydpi="96"
   style="shape-rendering:crispEdges">
  <defs
     id="defs2" />
  <sodipodi:namedview
     id="base"
     pagecolor="#ffffff"
     bordercolor="#666666"
     borderopacity="1.0"
     inkscape:pageopacity="0.0"
     inkscape:pageshadow="2"
     inkscape:zoom="18.28125"
     inkscape:cx="16"
     inkscape:cy="16"
     inkscape:document-units="mm"
     inkscape:current-layer="layer1"
     showgrid="false"
     units="px"
     showguides="false"
     inkscape:guide-bbox="true"
     inkscape:window-width="1366"
     inkscape:window-height="753"
     inkscape:window-x="0"
     inkscape:window-y="15"
     inkscape:window-maximized="0">
    <sodipodi:guide
       position="44.147082,-0.91639003"
       orientation="0,1"
       id="guide828"
       inkscape:locked="false" />
    <inkscape:grid
       type="xygrid"
       id="grid858"
       dotted="true" />
  </sodipodi:namedview>
  <metadata
     id="metadata5">
    <rdf:RDF>
      <cc:Work
         rdf:about="">
        <dc:format>image/svg+xml</dc:format>
        <dc:type
           rdf:resource="http://purl.org/dc/dcmitype/StillImage" />
        <dc:title></dc:title>
      </cc:Work>
    </rdf:RDF>
  </metadata>
  <g
     inkscape:label="Layer 1"
     inkscape:groupmode="layer"
     id="layer1"
     transform="translate(0,-288.53332)">
    <g
       id="g971"
       transform="matrix(-1,0,0,1,8.2047578,0)">
      <path
         style="fill:none;fill-rule:evenodd;stroke:#2b1100;stroke-width:0.26499999;stroke-linecap:round;stroke-linejoin:round;stroke-miterlimit:4;stroke-dasharray:none;stroke-opacity:1"
         d="m 2.1322554,290.70911 c -0.087923,0.0975 -0.1641043,0.2067 -0.2729167,0.28348 -0.028328,0.0348 -0.1301377,0.0648 -0.1179211,0.11367 m 0.2035607,-1.04294 c -0.1766231,0.12407 -0.2824295,0.32988 -0.2989378,0.54323 -0.024424,0.17787 -0.00225,0.36495 0.073212,0.52821 0.066805,0.12074 0.1328181,0.24332 0.2302916,0.34308 0.083809,0.11461 0.2275731,0.1454 0.3510359,0.19799 0.058266,0.0124 0.1408149,0.0394 0.192657,0.0176"
         id="path891"
         inkscape:connector-curvature="0" />
      <path
         sodipodi:nodetypes="sccccccccccccccccccscccs"
         inkscape:connector-curvature="0"
         id="path861"
         d="m 1.5067925,291.79759 c -0.349149,0.16907 -0.6276446,0.52597 -0.4185792,0.86971 0.1847968,0.35408 0.6579324,0.25812 0.9565308,0.12506 0.3744651,0.13853 0.897679,0.28663 1.0666017,0.64647 -0.08685,0.34721 -7.144e-4,0.78375 0.2816365,1.01234 -0.00976,0.0756 -0.017907,0.15141 -0.032556,0.22583 0.022958,0.60905 0.077972,1.37026 0.077191,1.97936 0.061327,0.0917 0.29004,0.0308 0.3622519,-0.0109 -0.054721,-0.50465 0.024686,-1.16641 0.072154,-1.6693 0.020275,-0.12289 0.040277,-0.2466 0.058394,-0.37052 0.459755,-0.0149 0.8885417,-0.28973 1.3487548,-0.3452 0.1136967,-0.0231 0.2276374,-0.0361 0.342098,-0.0429 0.039334,0.20073 0.1443805,0.3899 0.242879,0.56844 0.1257337,0.28796 0.3390051,0.53255 0.4444175,0.82837 0.087706,0.37821 -0.2173512,0.67433 -0.3302124,1.00562 0.090678,0.0632 0.5273592,0.1202 0.495577,-0.1757 0.095523,-0.32727 0.3107915,-0.59555 0.4573365,-0.89761 -0.1020805,-0.43544 -0.081424,-0.8853 -0.1095542,-1.32861 0.2118993,-0.0788 0.3742137,-0.27664 0.3638021,-0.51676 -0.036385,-0.35467 -0.1961941,-0.43659 -0.6480225,-0.72657 -0.4518284,-0.28998 -1.4387266,-0.32714 -2.1642088,-0.43718 -0.5685973,-0.066 -0.9647926,-0.52922 -1.4562418,-0.77256 -0.08199,-0.16408 -0.3265431,-0.28725 -0.5091139,-0.27875 -0.1825709,0.009 -0.551987,0.14229 -0.901136,0.31136 z"
         style="fill:#aa4400;fill-rule:evenodd;stroke:#552200;stroke-width:0.26458332px;stroke-linecap:butt;stroke-linejoin:miter;stroke-opacity:1" />
      <path
         inkscape:connector-curvature="0"
         id="path886"
         d="m 2.8542186,290.70911 c 0.087923,0.0975 0.1641043,0.2067 0.2729167,0.28348 0.028328,0.0348 0.1301377,0.0648 0.1179211,0.11367 m -0.2035607,-1.04294 c 0.1766231,0.12407 0.2824295,0.32988 0.2989378,0.54323 0.024424,0.17787 0.00225,0.36495 -0.073212,0.52821 -0.066805,0.12074 -0.1328181,0.24332 -0.2302916,0.34308 -0.083809,0.11461 -0.2275731,0.1454 -0.3510359,0.19799 -0.058266,0.0124 -0.1408149,0.0394 -0.192657,0.0176"
         style="fill:none;fill-rule:evenodd;stroke:#2b1100;stroke-width:0.26499999;stroke-linecap:round;stroke-linejoin:round;stroke-miterlimit:4;stroke-dasharray:none;stroke-opacity:1" />
      <path
         sodipodi:nodetypes="cc"
         inkscape:connector-curvature="0"
         id="path914"
         d="m 2.037436,292.09163 0.2098804,-0.002"
         style="fill:none;fill-rule:evenodd;stroke:#000000;stroke-width:0.26458332px;stroke-linecap:round;stroke-linejoin:round;stroke-opacity:1" />
    </g>
  </g>
</svg>
