<?xml version="1.0" encoding="UTF-8" standalone="no"?>
<!-- Created with Inkscape (http://www.inkscape.org/) -->

<svg
   xmlns:dc="http://purl.org/dc/elements/1.1/"
   xmlns:cc="http://creativecommons.org/ns#"
   xmlns:rdf="http://www.w3.org/1999/02/22-rdf-syntax-ns#"
   xmlns:svg="http://www.w3.org/2000/svg"
   xmlns="http://www.w3.org/2000/svg"
   xmlns:sodipodi="http://sodipodi.sourceforge.net/DTD/sodipodi-0.dtd"
   xmlns:inkscape="http://www.inkscape.org/namespaces/inkscape"
   width="32"
   height="64"
   viewBox="0 0 8.4666665 16.933334"
   version="1.1"
   id="svg8"
   shape-rendering="crispEdges"
   inkscape:version="0.92.4 (5da689c313, 2019-01-14)"
   sodipodi:docname="sugarstick00.svg">
  <defs
     id="defs2" />
  <sodipodi:namedview
     id="base"
     pagecolor="#ffffff"
     bordercolor="#666666"
     borderopacity="1.0"
     inkscape:pageopacity="0.0"
     inkscape:pageshadow="2"
     inkscape:zoom="14.234375"
     inkscape:cx="16"
     inkscape:cy="32"
     inkscape:document-units="mm"
     inkscape:current-layer="layer1"
     showgrid="false"
     units="px"
     inkscape:window-width="1918"
     inkscape:window-height="1078"
     inkscape:window-x="1366"
     inkscape:window-y="0"
     inkscape:window-maximized="0" />
  <metadata
     id="metadata5">
    <rdf:RDF>
      <cc:Work
         rdf:about="">
        <dc:format>image/svg+xml</dc:format>
        <dc:type
           rdf:resource="http://purl.org/dc/dcmitype/StillImage" />
        <dc:title></dc:title>
      </cc:Work>
    </rdf:RDF>
  </metadata>
  <g
     inkscape:label="Layer 1"
     inkscape:groupmode="layer"
     id="layer1"
     transform="translate(0,-280.06665)">
    <g
       id="g862">
      <path
         style="fill:#f4eed7;fill-rule:evenodd;stroke:#000000;stroke-width:0.26458333;stroke-linecap:round;stroke-linejoin:round;stroke-opacity:1;stroke-miterlimit:4;stroke-dasharray:none"
         d="m 2.1149811,296.56938 c -0.014022,-2.69734 1.459575,-12.53549 1.831024,-14.36327 0.1172143,-0.57678 0.757498,-1.37752 1.4154937,-1.49453 2.8384905,-0.50477 2.5601847,3.04898 1.9487614,3.11029 -1.3317384,0.13354 -0.2197558,-1.94726 -1.3895707,-1.72334 -0.9016413,0.17258 -0.826594,0.92698 -0.8331338,1.6087 -0.1187372,2.42215 -1.4677407,10.68035 -1.6299609,12.96384 -0.746981,0.36305 -1.1067488,0.21281 -1.3426137,-0.10169 z"
         id="path834"
         inkscape:connector-curvature="0"
         sodipodi:nodetypes="cssssccc" />
      <path
         sodipodi:nodetypes="ccccc"
         inkscape:connector-curvature="0"
         id="path832"
         d="m 6.3206709,282.13903 c 0.2349335,0.18309 0.083546,0.41429 0.2697404,0.80838 0.5669191,-0.50538 0.4829727,-0.33508 1.1374731,-0.0609 0.024074,-0.30148 -0.1263157,-0.77095 -0.2990969,-1.55513 -0.4074144,-0.0598 -1.1853527,0.37695 -1.1081166,0.8076 z"
         style="fill:#ff0000;fill-opacity:1;fill-rule:evenodd;stroke:none;stroke-width:0.26458332;stroke-linecap:round;stroke-linejoin:round;stroke-miterlimit:4;stroke-dasharray:none;stroke-opacity:1" />
      <path
         style="fill:#ff0000;fill-opacity:1;fill-rule:evenodd;stroke:none;stroke-width:0.26458332;stroke-linecap:round;stroke-linejoin:round;stroke-miterlimit:4;stroke-dasharray:none;stroke-opacity:1"
         d="m 5.1371747,283.07434 c -0.090443,-0.6809 0.2912279,-0.83647 0.7116592,-0.94892 -0.6307572,-0.42303 -0.5810299,-0.73423 -0.4786246,-1.43643 -0.3202155,-0.008 -0.6969877,0.34721 -1.2953335,1.02738 -0.013352,0.31684 0.2996403,0.9466 1.0622989,1.35797 z"
         id="path830"
         inkscape:connector-curvature="0"
         sodipodi:nodetypes="ccccc" />
      <path
         sodipodi:nodetypes="ccccc"
         inkscape:connector-curvature="0"
         id="path828"
         d="M 4.6268863,287.71261 4.9684465,285.4875 C 4.006304,285.1208 3.8204389,284.39226 3.6705186,283.64697 l -0.2330645,2.43431 c -0.013352,0.31684 0.4267736,1.21996 1.1894322,1.63133 z"
         style="fill:#ff0000;fill-opacity:1;fill-rule:evenodd;stroke:none;stroke-width:0.26458332;stroke-linecap:round;stroke-linejoin:round;stroke-miterlimit:4;stroke-dasharray:none;stroke-opacity:1" />
      <path
         style="fill:#ff0000;fill-opacity:1;fill-rule:evenodd;stroke:none;stroke-width:0.26458332;stroke-linecap:round;stroke-linejoin:round;stroke-miterlimit:4;stroke-dasharray:none;stroke-opacity:1"
         d="m 3.9460171,291.95717 0.3415602,-2.22511 c -0.9621425,-0.3667 -1.1480076,-1.09524 -1.2979279,-1.84053 l -0.2330645,2.43431 c -0.013352,0.31684 0.4267736,1.21996 1.1894322,1.63133 z"
         id="path826"
         inkscape:connector-curvature="0"
         sodipodi:nodetypes="ccccc" />
      <path
         sodipodi:nodetypes="ccccc"
         inkscape:connector-curvature="0"
         id="path19"
         d="m 3.4770366,296.07099 0.3415602,-2.22511 c -0.9621425,-0.3667 -1.1480076,-1.09524 -1.2979279,-1.84053 l -0.2330645,2.43431 c -0.013352,0.31684 0.4267736,1.21996 1.1894322,1.63133 z"
         style="fill:#ff0000;fill-opacity:1;fill-rule:evenodd;stroke:none;stroke-width:0.26458332;stroke-linecap:round;stroke-linejoin:round;stroke-miterlimit:4;stroke-dasharray:none;stroke-opacity:1" />
      <path
         sodipodi:nodetypes="cssssccc"
         inkscape:connector-curvature="0"
         id="path12"
         d="m 2.1149811,296.56938 c -0.014022,-2.69734 1.459575,-12.53549 1.831024,-14.36327 0.1172143,-0.57678 0.757498,-1.37752 1.4154937,-1.49453 2.8384905,-0.50477 2.5601847,3.04898 1.9487614,3.11029 -1.3317384,0.13354 -0.2197558,-1.94726 -1.3895707,-1.72334 -0.9016413,0.17258 -0.826594,0.92698 -0.8331338,1.6087 -0.1187372,2.42215 -1.4677407,10.68035 -1.6299609,12.96384 -0.746981,0.36305 -1.1067488,0.21281 -1.3426137,-0.10169 z"
         style="fill:none;fill-rule:evenodd;stroke:#000000;stroke-width:0.26458333;stroke-linecap:round;stroke-linejoin:round;stroke-opacity:1;stroke-miterlimit:4;stroke-dasharray:none" />
    </g>
  </g>
</svg>
