<?xml version="1.0" encoding="UTF-8" standalone="no"?>
<!-- Created with Inkscape (http://www.inkscape.org/) -->

<svg
   xmlns:dc="http://purl.org/dc/elements/1.1/"
   xmlns:cc="http://creativecommons.org/ns#"
   xmlns:rdf="http://www.w3.org/1999/02/22-rdf-syntax-ns#"
   xmlns:svg="http://www.w3.org/2000/svg"
   xmlns="http://www.w3.org/2000/svg"
   xmlns:sodipodi="http://sodipodi.sourceforge.net/DTD/sodipodi-0.dtd"
   xmlns:inkscape="http://www.inkscape.org/namespaces/inkscape"
   width="32"
   height="32"
   viewBox="0 0 8.4666659 8.4666659"
   version="1.1"
   id="svg8"
   style="shape-rendering:crispEdges"
   inkscape:version="0.92.4 (5da689c313, 2019-01-14)"
   sodipodi:docname="tree.svg">
  <defs
     id="defs2" />
  <sodipodi:namedview
     id="base"
     pagecolor="#ffffff"
     bordercolor="#666666"
     borderopacity="1.0"
     inkscape:pageopacity="0.0"
     inkscape:pageshadow="2"
     inkscape:zoom="27.90625"
     inkscape:cx="15.104333"
     inkscape:cy="12.978767"
     inkscape:document-units="px"
     inkscape:current-layer="layer1"
     showgrid="false"
     showguides="false"
     inkscape:guide-bbox="true"
     units="px"
     inkscape:pagecheckerboard="true"
     inkscape:window-width="1364"
     inkscape:window-height="751"
     inkscape:window-x="0"
     inkscape:window-y="15"
     inkscape:window-maximized="0">
    <sodipodi:guide
       position="82.130457,208.31272"
       orientation="1,0"
       id="guide821"
       inkscape:locked="false" />
  </sodipodi:namedview>
  <metadata
     id="metadata5">
    <rdf:RDF>
      <cc:Work
         rdf:about="">
        <dc:format>image/svg+xml</dc:format>
        <dc:type
           rdf:resource="http://purl.org/dc/dcmitype/StillImage" />
        <dc:title></dc:title>
      </cc:Work>
    </rdf:RDF>
  </metadata>
  <g
     inkscape:label="Layer 1"
     inkscape:groupmode="layer"
     id="layer1"
     transform="translate(0,-288.53334)">
    <ellipse
       style="opacity:1;fill:#000000;fill-opacity:0.25098041;stroke:none;stroke-width:0.48099205;stroke-linecap:round;stroke-linejoin:round;stroke-miterlimit:4;stroke-dasharray:none;stroke-opacity:1"
       id="path935"
       cx="4.2333331"
       cy="296.5686"
       rx="2.7495332"
       ry="0.39346766" />
    <path
       style="fill:#28170b;fill-rule:evenodd;stroke:none;stroke-width:0.26458332px;stroke-linecap:butt;stroke-linejoin:miter;stroke-opacity:1"
       d="m 3.4199163,296.54948 c -0.015701,-0.0787 0.014898,-0.14538 0.079926,-0.19096 0.049848,-0.0555 0.1101753,-0.0875 0.1706325,-0.13149 0.05917,-0.043 0.070153,-0.1547 0.088216,-0.19809 -0.00589,-0.0637 -0.037367,-0.27139 -0.01948,-0.32933 0.3303239,-0.004 0.6258967,-0.0258 0.9496479,-0.0307 0,0 0.034508,0.30116 0.038035,0.36959 0.00349,0.0678 0.078521,0.15207 0.1163894,0.20433 0.045065,0.0622 0.088767,0.0986 0.139859,0.13413 0.1410614,0.0982 -0.023213,0.45409 -0.4266564,0.15228 -0.030342,-0.0389 -0.076671,-0.0161 -0.071077,0.0272 -0.036654,0.0477 -0.071619,0.11251 -0.1351272,0.12529 -0.080444,0.0161 -0.1673553,0.0378 -0.2443256,0.0111 -0.062476,-0.0217 -0.027744,-0.12499 -0.074979,-0.16631 -0.044441,-0.045 -0.1236635,-0.011 -0.1758137,0.008 -0.073471,0.0268 -0.1465033,0.0547 -0.2227711,0.0587 -0.066615,-0.0101 -0.1478414,0.01 -0.20255,-0.0361 l -0.00992,-0.008 z"
       id="path851"
       inkscape:connector-curvature="0"
       sodipodi:nodetypes="ccscccssscccscscccc" />
    <path
       style="fill:#008000;fill-rule:evenodd;stroke:none;stroke-width:0.02113268px;stroke-linecap:butt;stroke-linejoin:miter;stroke-opacity:1"
       d="m 4.2330746,289.58624 c -0.485703,0.74189 -0.9310306,1.11149 -1.7905883,1.41129 0.2845791,0.34912 0.5831052,0.38825 1.1477336,0.42426 -0.5476094,0.55231 -0.7120046,0.8073 -1.8422647,0.88677 0.463275,0.5352 0.7842581,0.67254 1.5125691,0.73225 0,0 -0.5482198,0.60285 -1.7719848,0.81908 0.486294,0.4127 1.0147985,0.61222 1.4655435,0.59634 -0.5324931,0.43602 -0.9860025,0.64933 -1.9032429,0.81546 0.4620787,0.29932 0.9441385,0.44962 1.363737,0.53083 0.2818139,0.0545 0.3953592,0.32697 0.6190685,0.38828 0.2138202,0.0586 0.8247868,-0.26859 1.199429,-0.2437 0.486203,-0.0323 1.1062946,0.22695 1.4846996,0.19872 0.1429396,-0.0107 0.072571,-0.28994 0.2083059,-0.30948 0.4934625,-0.071 0.9541393,-0.21771 1.4897457,-0.56465 -0.9172405,-0.16613 -1.3707498,-0.37944 -1.903243,-0.81546 0.4507452,0.0159 0.9792495,-0.18364 1.4655436,-0.59634 -1.223765,-0.21623 -1.7725015,-0.81908 -1.7725015,-0.81908 0.728311,-0.0597 1.0498107,-0.19705 1.5130858,-0.73225 -1.1302602,-0.0795 -1.2946554,-0.33446 -1.8422645,-0.88677 0.5646282,-0.036 0.8631543,-0.0751 1.1477333,-0.42426 -0.8595576,-0.2998 -1.305402,-0.6694 -1.7911049,-1.41129 z"
       id="path815"
       inkscape:connector-curvature="0"
       sodipodi:nodetypes="ccccccccsscsscccccccc" />
    <path
       sodipodi:nodetypes="sssczcssszscsscsscsccccsccccccccssscsccc"
       inkscape:connector-curvature="0"
       id="path830"
       d="m 5.5125828,294.10112 c 0.1933987,-0.10253 1.2644877,-0.004 1.4682127,-0.24755 0.1682204,-0.20101 -0.00267,-0.10301 -0.00267,-0.21895 0,-0.21575 -1.7725015,-0.59381 -1.7725015,-0.59381 -0.3598406,0.0993 -0.886097,0.60595 -0.9870455,0.61436 -0.1009485,0.008 -0.6287173,-0.27132 -0.9580551,-0.61436 0,0 -1.7034366,0.38172 -1.7719848,0.59381 -0.047669,0.14749 -0.1197127,0.2071 0.083935,0.3029 0.2971372,0.13979 1.1371447,0.1776 1.3816084,0.28648 0,0 1.0152308,0.57942 1.2644964,0.56316 0.2492656,-0.0163 1.2940044,-0.68604 1.2940044,-0.68604 z m -2.5584998,0.35511 c -0.5324931,0.43602 -1.0533838,0.20722 -1.9032429,0.59019 -0.19005864,0.0856 -0.13263719,0.18165 0.080464,0.26699 0.7699998,0.30837 2.0541468,0.33881 3.1017704,0.40842 0.9228149,-0.0613 3.0215132,-0.24718 3.1740332,-0.4389 0.1462409,-0.18384 0.060897,-0.10219 0.00872,-0.23651 -0.093557,-0.24083 -1.3707498,-0.15417 -1.903243,-0.59019 0,0 -1.0586909,0.59574 -1.2940034,0.61436 -0.1835518,0.0145 -1.2644964,-0.61436 -1.2644964,-0.61436 z m 2.2720204,-1.64766 c 0.7752979,-0.0776 1.8646825,-0.5077 1.4926073,-0.72528 -1.1302602,-0.0795 -1.2946554,-0.10917 -1.8422645,-0.6615 0,0 -0.4210745,0.49757 -0.6783453,0.49148 -0.2369042,-0.006 -0.607881,-0.49148 -0.607881,-0.49148 -0.5476094,0.55231 -0.7120046,0.58203 -1.8422647,0.6615 -0.3748986,0.21446 0.7558624,0.64687 1.5330476,0.72528 l 0.9478159,0.45053 z m 0.7980761,-2.03631 c -0.8595576,-0.2998 -1.5084817,-1.41129 -1.7911049,-1.41129 -0.2826232,0 -1.5957759,1.19149 -1.7905883,1.41129 -0.1023611,0.11549 -0.058057,0.20961 0,0.22527 0.2309939,0.0623 0.82291,0.0825 1.1259048,0.0188 0.2481515,0.12904 0.4601791,0.48598 0.6649422,0.48203 0.1638231,-0.003 0.5016199,-0.26105 0.8254491,-0.45067 0.2662193,0.0478 0.768234,-0.0165 0.9648121,-0.0525 0.100022,-0.0183 -0.045976,-0.16581 5.853e-4,-0.22294 z"
       style="fill:#ffffff;fill-rule:evenodd;stroke:none;stroke-width:0.02113268px;stroke-linecap:butt;stroke-linejoin:miter;stroke-opacity:1" />
    <path
       style="fill:#ddf8ff;fill-opacity:1;fill-rule:evenodd;stroke:none;stroke-width:0.02113268px;stroke-linecap:butt;stroke-linejoin:miter;stroke-opacity:1"
       d="m 5.6764965,293.13287 c -0.3439222,-0.0875 -0.4708725,-0.0921 -0.4708725,-0.0921 -0.3598406,0.0993 -0.886097,0.60595 -0.9870455,0.61436 -0.1009485,0.008 -0.6287173,-0.27132 -0.9580551,-0.61436 0,0 -0.1108148,0.0114 -0.4338807,0.0957 0.2256209,0.21306 0.992208,0.7206 1.402075,0.71338 0.6347803,-0.0112 0.912254,-0.4953 1.4477788,-0.71703 z m -3.5874334,0.21758 c 0,0 -0.5745499,0.2038 -0.6005245,0.28417 -0.047669,0.14749 -0.1197127,0.2071 0.083935,0.3029 0.2971372,0.13979 1.1371447,0.1776 1.3816084,0.28648 0,0 1.0152308,0.57942 1.2644964,0.56316 0.2492656,-0.0163 1.2940044,-0.68604 1.2940044,-0.68604 0.1933987,-0.10253 1.2644877,-0.004 1.4682127,-0.24755 0.1682204,-0.20101 -0.00267,-0.10301 -0.00267,-0.21895 0,-0.0699 -0.4376569,-0.24245 -0.4376569,-0.24245 -0.056881,0.29716 -0.7278967,0.17666 -1.0455369,0.34814 -0.4449806,0.24023 -0.8476991,0.51388 -1.285168,0.50415 -0.4755609,-0.0106 -0.5376637,-0.33881 -1.0210217,-0.4262 -0.2857821,-0.0517 -0.9986199,-0.16736 -1.0996789,-0.46781 z m 3.9218656,1.32731 c -0.2693985,-0.0899 -0.2958943,-0.12385 -0.498344,-0.22153 0,0 -1.0586909,0.59574 -1.2940034,0.61436 -0.1835518,0.0145 -1.2644964,-0.61436 -1.2644964,-0.61436 h -1.9e-6 c -0.2570871,0.16245 -0.134299,0.14842 -0.3934321,0.20649 0.9340714,0.31915 1.2063782,0.53051 1.6677992,0.54172 0.969683,0.0236 0.8555268,-0.5224 1.7824786,-0.52668 z m -3.8010803,0.60894 c -0.3247197,0.0528 -0.5879559,-0.1851 -0.950423,-0.32561 -0.47447603,0.12352 -0.34122149,0.26698 -0.1281213,0.35232 0.3579829,0.14337 0.9124266,0.24562 1.4172352,0.3007 0.2663785,0.0291 0.040196,0.27782 0.3153697,0.29586 0.3250152,0.0213 1.0656051,-0.20833 1.3691655,-0.18814 0.2861588,-0.019 1.1020263,0.22829 1.5217652,0.19501 0.2042274,-0.0162 -0.02468,-0.23579 0.2273017,-0.30282 0.5026166,-0.13372 1.3632436,-0.24466 1.4249663,-0.33109 0.1365231,-0.19117 0.0609,-0.10219 0.00872,-0.23651 -0.2838696,0.12049 -0.7409621,0.26394 -1.0351342,0.2648 -0.2941721,8.6e-4 -0.5970916,0.25889 -0.5970916,0.25889 -0.1558305,0.0676 -1.5551518,-0.1476 -1.5551518,-0.1476 -0.4942825,0.10959 -1.2870697,0.26171 -1.4883449,0.1842 -0.2012751,-0.0775 -0.1773495,-0.26077 -0.5302568,-0.32001 z m 3.0689345,-3.49833 c -0.187783,-0.16861 -0.211614,-0.14426 -0.4023367,-0.36658 0,0 -0.4210745,0.49757 -0.6783453,0.49148 -0.2369042,-0.006 -0.607881,-0.49148 -0.607881,-0.49148 -0.1519923,0.17315 -0.1726433,0.156 -0.3424611,0.31059 0.2526629,0.18073 0.694871,0.45924 0.9518996,0.44916 0.2570286,-0.0101 0.6686186,-0.16514 1.0791245,-0.39317 z m -2.343902,0.65332 c -0.2577002,0.10029 -0.5856349,-0.40068 -1.1869257,-0.3584 -0.3748986,0.21446 0.7558624,0.64687 1.5330476,0.72528 l 0.9478159,0.45053 0.9972847,-0.45053 c 0.7752979,-0.0776 1.8646825,-0.5077 1.4926073,-0.72528 -0.384367,-0.027 -0.6570344,0.48086 -0.8710589,0.44283 -0.5364535,0.11185 -1.3481019,0.32181 -1.6093607,0.3326 0,0 -0.8689402,-0.20848 -1.3034102,-0.41703 z m 3.0892986,-1.66943 c -0.8595576,-0.2998 -1.4990006,0.0962 -1.7816238,0.0962 -0.2826232,0 -1.605257,-0.31601 -1.8000694,-0.0962 -0.1023611,0.11549 -0.058057,0.20961 0,0.22527 0.2309939,0.0623 0.82291,0.0825 1.1259048,0.0188 0.2481515,0.12904 0.4601791,0.48598 0.6649422,0.48203 0.1638231,-0.003 0.5016199,-0.26105 0.8254491,-0.45067 0.2662193,0.0478 0.768234,-0.0165 0.9648121,-0.0525 0.100022,-0.0183 -0.045976,-0.16581 5.853e-4,-0.22294 z"
       id="path937"
       inkscape:connector-curvature="0"
       sodipodi:nodetypes="cczccsccssszssscssscccscccscccssscsssczsczccsccczccccccccscccssscsccc" />
    <circle
       style="opacity:1;fill:#aaeeff;fill-opacity:1;stroke:none;stroke-width:0.82039207;stroke-linecap:round;stroke-linejoin:round;stroke-miterlimit:4;stroke-dasharray:none;stroke-opacity:1"
       id="path855"
       cx="4.2565913"
       cy="290.25934"
       r="0.13229166" />
    <circle
       r="0.13229166"
       cy="290.48691"
       cx="4.8918285"
       id="circle857"
       style="opacity:1;fill:#aaeeff;fill-opacity:1;stroke:none;stroke-width:0.82039207;stroke-linecap:round;stroke-linejoin:round;stroke-miterlimit:4;stroke-dasharray:none;stroke-opacity:1" />
    <circle
       style="opacity:1;fill:#aaeeff;fill-opacity:1;stroke:none;stroke-width:0.82039207;stroke-linecap:round;stroke-linejoin:round;stroke-miterlimit:4;stroke-dasharray:none;stroke-opacity:1"
       id="circle859"
       cx="3.4127691"
       cy="290.66705"
       r="0.13229166" />
    <circle
       r="0.13229166"
       cy="291.06525"
       cx="4.2850347"
       id="circle861"
       style="opacity:1;fill:#aaeeff;fill-opacity:1;stroke:none;stroke-width:0.82039207;stroke-linecap:round;stroke-linejoin:round;stroke-miterlimit:4;stroke-dasharray:none;stroke-opacity:1" />
    <circle
       r="0.13229166"
       cy="290.89456"
       cx="5.2710743"
       id="circle863"
       style="opacity:1;fill:#aaeeff;fill-opacity:1;stroke:none;stroke-width:0.82039207;stroke-linecap:round;stroke-linejoin:round;stroke-miterlimit:4;stroke-dasharray:none;stroke-opacity:1" />
    <circle
       style="opacity:1;fill:#aaeeff;fill-opacity:1;stroke:none;stroke-width:0.82039207;stroke-linecap:round;stroke-linejoin:round;stroke-miterlimit:4;stroke-dasharray:none;stroke-opacity:1"
       id="circle865"
       cx="2.8249378"
       cy="290.923"
       r="0.13229166" />
    <circle
       r="0.13229166"
       cy="292.46844"
       cx="2.4456918"
       id="circle867"
       style="opacity:1;fill:#aaeeff;fill-opacity:1;stroke:none;stroke-width:0.82039207;stroke-linecap:round;stroke-linejoin:round;stroke-miterlimit:4;stroke-dasharray:none;stroke-opacity:1" />
    <circle
       style="opacity:1;fill:#aaeeff;fill-opacity:1;stroke:none;stroke-width:0.82039207;stroke-linecap:round;stroke-linejoin:round;stroke-miterlimit:4;stroke-dasharray:none;stroke-opacity:1"
       id="circle869"
       cx="3.1852214"
       cy="292.6391"
       r="0.13229166" />
    <circle
       r="0.13229166"
       cy="292.74338"
       cx="3.7825339"
       id="circle871"
       style="opacity:1;fill:#aaeeff;fill-opacity:1;stroke:none;stroke-width:0.82039207;stroke-linecap:round;stroke-linejoin:round;stroke-miterlimit:4;stroke-dasharray:none;stroke-opacity:1" />
    <circle
       style="opacity:1;fill:#aaeeff;fill-opacity:1;stroke:none;stroke-width:0.82039207;stroke-linecap:round;stroke-linejoin:round;stroke-miterlimit:4;stroke-dasharray:none;stroke-opacity:1"
       id="circle873"
       cx="4.4462142"
       cy="292.45895"
       r="0.13229166" />
    <circle
       r="0.13229166"
       cy="292.17453"
       cx="3.4412124"
       id="circle875"
       style="opacity:1;fill:#aaeeff;fill-opacity:1;stroke:none;stroke-width:0.82039207;stroke-linecap:round;stroke-linejoin:round;stroke-miterlimit:4;stroke-dasharray:none;stroke-opacity:1" />
    <circle
       style="opacity:1;fill:#aaeeff;fill-opacity:1;stroke:none;stroke-width:0.82039207;stroke-linecap:round;stroke-linejoin:round;stroke-miterlimit:4;stroke-dasharray:none;stroke-opacity:1"
       id="circle877"
       cx="4.7685733"
       cy="292.80029"
       r="0.13229166" />
    <circle
       r="0.13229166"
       cy="292.54431"
       cx="5.6692824"
       id="circle879"
       style="opacity:1;fill:#aaeeff;fill-opacity:1;stroke:none;stroke-width:0.82039207;stroke-linecap:round;stroke-linejoin:round;stroke-miterlimit:4;stroke-dasharray:none;stroke-opacity:1" />
    <circle
       style="opacity:1;fill:#aaeeff;fill-opacity:1;stroke:none;stroke-width:0.82039207;stroke-linecap:round;stroke-linejoin:round;stroke-miterlimit:4;stroke-dasharray:none;stroke-opacity:1"
       id="circle881"
       cx="5.1762629"
       cy="292.2504"
       r="0.13229166" />
    <circle
       r="0.13229166"
       cy="292.4021"
       cx="6.1243777"
       id="circle883"
       style="opacity:1;fill:#aaeeff;fill-opacity:1;stroke:none;stroke-width:0.82039207;stroke-linecap:round;stroke-linejoin:round;stroke-miterlimit:4;stroke-dasharray:none;stroke-opacity:1" />
    <circle
       style="opacity:1;fill:#aaeeff;fill-opacity:1;stroke:none;stroke-width:0.82039207;stroke-linecap:round;stroke-linejoin:round;stroke-miterlimit:4;stroke-dasharray:none;stroke-opacity:1"
       id="circle885"
       cx="1.9431911"
       cy="292.23145"
       r="0.13229166" />
    <circle
       r="0.13229166"
       cy="293.6062"
       cx="1.9242288"
       id="circle887"
       style="opacity:1;fill:#aaeeff;fill-opacity:1;stroke:none;stroke-width:0.82039207;stroke-linecap:round;stroke-linejoin:round;stroke-miterlimit:4;stroke-dasharray:none;stroke-opacity:1" />
    <circle
       style="opacity:1;fill:#aaeeff;fill-opacity:1;stroke:none;stroke-width:0.82039207;stroke-linecap:round;stroke-linejoin:round;stroke-miterlimit:4;stroke-dasharray:none;stroke-opacity:1"
       id="circle889"
       cx="2.5215411"
       cy="293.88116"
       r="0.13229166" />
    <circle
       r="0.13229166"
       cy="293.92856"
       cx="3.1852214"
       id="circle891"
       style="opacity:1;fill:#aaeeff;fill-opacity:1;stroke:none;stroke-width:0.82039207;stroke-linecap:round;stroke-linejoin:round;stroke-miterlimit:4;stroke-dasharray:none;stroke-opacity:1" />
    <circle
       style="opacity:1;fill:#aaeeff;fill-opacity:1;stroke:none;stroke-width:0.82039207;stroke-linecap:round;stroke-linejoin:round;stroke-miterlimit:4;stroke-dasharray:none;stroke-opacity:1"
       id="circle893"
       cx="3.7730527"
       cy="294.26987"
       r="0.13229166" />
    <circle
       r="0.13229166"
       cy="293.90012"
       cx="4.8539038"
       id="circle895"
       style="opacity:1;fill:#aaeeff;fill-opacity:1;stroke:none;stroke-width:0.82039207;stroke-linecap:round;stroke-linejoin:round;stroke-miterlimit:4;stroke-dasharray:none;stroke-opacity:1" />
    <circle
       style="opacity:1;fill:#aaeeff;fill-opacity:1;stroke:none;stroke-width:0.82039207;stroke-linecap:round;stroke-linejoin:round;stroke-miterlimit:4;stroke-dasharray:none;stroke-opacity:1"
       id="circle897"
       cx="4.4082899"
       cy="294.21298"
       r="0.13229166" />
    <circle
       r="0.13229166"
       cy="294.17505"
       cx="5.062489"
       id="circle899"
       style="opacity:1;fill:#aaeeff;fill-opacity:1;stroke:none;stroke-width:0.82039207;stroke-linecap:round;stroke-linejoin:round;stroke-miterlimit:4;stroke-dasharray:none;stroke-opacity:1" />
    <circle
       style="opacity:1;fill:#aaeeff;fill-opacity:1;stroke:none;stroke-width:0.82039207;stroke-linecap:round;stroke-linejoin:round;stroke-miterlimit:4;stroke-dasharray:none;stroke-opacity:1"
       id="circle901"
       cx="5.8589053"
       cy="293.87164"
       r="0.13229166" />
    <circle
       r="0.13229166"
       cy="293.76736"
       cx="6.588954"
       id="circle903"
       style="opacity:1;fill:#aaeeff;fill-opacity:1;stroke:none;stroke-width:0.82039207;stroke-linecap:round;stroke-linejoin:round;stroke-miterlimit:4;stroke-dasharray:none;stroke-opacity:1" />
    <circle
       style="opacity:1;fill:#aaeeff;fill-opacity:1;stroke:none;stroke-width:0.82039207;stroke-linecap:round;stroke-linejoin:round;stroke-miterlimit:4;stroke-dasharray:none;stroke-opacity:1"
       id="circle905"
       cx="4.0954118"
       cy="294.63962"
       r="0.13229166" />
    <circle
       r="0.13229166"
       cy="295.23694"
       cx="1.3743221"
       id="circle907"
       style="opacity:1;fill:#aaeeff;fill-opacity:1;stroke:none;stroke-width:0.82039207;stroke-linecap:round;stroke-linejoin:round;stroke-miterlimit:4;stroke-dasharray:none;stroke-opacity:1" />
    <circle
       style="opacity:1;fill:#aaeeff;fill-opacity:1;stroke:none;stroke-width:0.82039207;stroke-linecap:round;stroke-linejoin:round;stroke-miterlimit:4;stroke-dasharray:none;stroke-opacity:1"
       id="circle909"
       cx="2.2086632"
       cy="295.03784"
       r="0.13229166" />
    <circle
       r="0.13229166"
       cy="295.33176"
       cx="2.5499847"
       id="circle911"
       style="opacity:1;fill:#aaeeff;fill-opacity:1;stroke:none;stroke-width:0.82039207;stroke-linecap:round;stroke-linejoin:round;stroke-miterlimit:4;stroke-dasharray:none;stroke-opacity:1" />
    <circle
       style="opacity:1;fill:#aaeeff;fill-opacity:1;stroke:none;stroke-width:0.82039207;stroke-linecap:round;stroke-linejoin:round;stroke-miterlimit:4;stroke-dasharray:none;stroke-opacity:1"
       id="circle913"
       cx="3.1852217"
       cy="295.34125"
       r="0.13229166" />
    <circle
       r="0.13229166"
       cy="295.42657"
       cx="3.6213546"
       id="circle915"
       style="opacity:1;fill:#aaeeff;fill-opacity:1;stroke:none;stroke-width:0.82039207;stroke-linecap:round;stroke-linejoin:round;stroke-miterlimit:4;stroke-dasharray:none;stroke-opacity:1" />
    <circle
       style="opacity:1;fill:#aaeeff;fill-opacity:1;stroke:none;stroke-width:0.82039207;stroke-linecap:round;stroke-linejoin:round;stroke-miterlimit:4;stroke-dasharray:none;stroke-opacity:1"
       id="circle917"
       cx="4.1048932"
       cy="295.3602"
       r="0.13229166" />
    <circle
       r="0.13229166"
       cy="295.48346"
       cx="4.8444228"
       id="circle919"
       style="opacity:1;fill:#aaeeff;fill-opacity:1;stroke:none;stroke-width:0.82039207;stroke-linecap:round;stroke-linejoin:round;stroke-miterlimit:4;stroke-dasharray:none;stroke-opacity:1" />
    <circle
       style="opacity:1;fill:#aaeeff;fill-opacity:1;stroke:none;stroke-width:0.82039207;stroke-linecap:round;stroke-linejoin:round;stroke-miterlimit:4;stroke-dasharray:none;stroke-opacity:1"
       id="circle921"
       cx="5.5460277"
       cy="295.48346"
       r="0.13229166" />
    <circle
       r="0.13229166"
       cy="295.18954"
       cx="5.8968301"
       id="circle923"
       style="opacity:1;fill:#aaeeff;fill-opacity:1;stroke:none;stroke-width:0.82039207;stroke-linecap:round;stroke-linejoin:round;stroke-miterlimit:4;stroke-dasharray:none;stroke-opacity:1" />
    <circle
       style="opacity:1;fill:#aaeeff;fill-opacity:1;stroke:none;stroke-width:0.82039207;stroke-linecap:round;stroke-linejoin:round;stroke-miterlimit:4;stroke-dasharray:none;stroke-opacity:1"
       id="circle925"
       cx="6.3803687"
       cy="295.33176"
       r="0.13229166" />
    <circle
       r="0.13229166"
       cy="295.18005"
       cx="6.9302754"
       id="circle927"
       style="opacity:1;fill:#aaeeff;fill-opacity:1;stroke:none;stroke-width:0.82039207;stroke-linecap:round;stroke-linejoin:round;stroke-miterlimit:4;stroke-dasharray:none;stroke-opacity:1" />
    <circle
       style="opacity:1;fill:#aaeeff;fill-opacity:1;stroke:none;stroke-width:0.82039207;stroke-linecap:round;stroke-linejoin:round;stroke-miterlimit:4;stroke-dasharray:none;stroke-opacity:1"
       id="circle929"
       cx="5.2710743"
       cy="294.99991"
       r="0.13229166" />
    <circle
       r="0.13229166"
       cy="295.0473"
       cx="2.9955986"
       id="circle931"
       style="opacity:1;fill:#aaeeff;fill-opacity:1;stroke:none;stroke-width:0.82039207;stroke-linecap:round;stroke-linejoin:round;stroke-miterlimit:4;stroke-dasharray:none;stroke-opacity:1" />
    <circle
       style="opacity:1;fill:#aaeeff;fill-opacity:1;stroke:none;stroke-width:0.82039207;stroke-linecap:round;stroke-linejoin:round;stroke-miterlimit:4;stroke-dasharray:none;stroke-opacity:1"
       id="circle933"
       cx="1.8673419"
       cy="295.28433"
       r="0.13229166" />
  </g>
</svg>
