<?xml version="1.0" encoding="UTF-8" standalone="no"?>
<!-- Created with Inkscape (http://www.inkscape.org/) -->

<svg
   xmlns:dc="http://purl.org/dc/elements/1.1/"
   xmlns:cc="http://creativecommons.org/ns#"
   xmlns:rdf="http://www.w3.org/1999/02/22-rdf-syntax-ns#"
   xmlns:svg="http://www.w3.org/2000/svg"
   xmlns="http://www.w3.org/2000/svg"
   xmlns:sodipodi="http://sodipodi.sourceforge.net/DTD/sodipodi-0.dtd"
   xmlns:inkscape="http://www.inkscape.org/namespaces/inkscape"
   width="320"
   height="240"
   viewBox="0 0 84.666665 63.500002"
   version="1.1"
   id="svg8"
   inkscape:version="0.92.4 (5da689c313, 2019-01-14)"
   sodipodi:docname="reindeer-fp.svg"
   inkscape:export-filename="/home/tobias/devel/krampus2019/data/img/sprites/reindeer-fpv.png"
   inkscape:export-xdpi="96"
   inkscape:export-ydpi="96"
   shape-rendering="crispEdges">
  <defs
     id="defs2" />
  <sodipodi:namedview
     id="base"
     pagecolor="#ffffff"
     bordercolor="#666666"
     borderopacity="1.0"
     inkscape:pageopacity="0.0"
     inkscape:pageshadow="2"
     inkscape:zoom="2.3583333"
     inkscape:cx="160.84806"
     inkscape:cy="88.200761"
     inkscape:document-units="mm"
     inkscape:current-layer="layer1"
     showgrid="false"
     units="px"
     showguides="true"
     inkscape:guide-bbox="true"
     inkscape:window-width="1918"
     inkscape:window-height="1078"
     inkscape:window-x="1366"
     inkscape:window-y="0"
     inkscape:window-maximized="0">
    <sodipodi:guide
       position="44.147082,-0.91639003"
       orientation="0,1"
       id="guide828"
       inkscape:locked="false" />
  </sodipodi:namedview>
  <metadata
     id="metadata5">
    <rdf:RDF>
      <cc:Work
         rdf:about="">
        <dc:format>image/svg+xml</dc:format>
        <dc:type
           rdf:resource="http://purl.org/dc/dcmitype/StillImage" />
        <dc:title></dc:title>
      </cc:Work>
    </rdf:RDF>
  </metadata>
  <g
     inkscape:label="Layer 1"
     inkscape:groupmode="layer"
     id="layer1"
     transform="translate(0,-233.49998)">
    <path
       style="fill:#502d16;fill-rule:evenodd;stroke:none;stroke-width:0.23822534px;stroke-linecap:butt;stroke-linejoin:miter;stroke-opacity:1"
       d="m 25.828831,277.92284 c 0,0 -5.637795,-2.57919 -7.585884,-4.59185 -2.693682,-2.78297 -3.982542,-6.35277 -5.112476,-9.76957 -0.773355,-2.33853 -1.056746,-4.78789 -1.096085,-7.2088 -0.0293,-1.80314 0.08379,-3.63915 0.641638,-5.38482 0.749636,-2.34584 1.410763,-4.99821 3.580124,-6.66537 2.293802,-1.76279 5.882557,-3.49306 8.883244,-2.68822 1.032166,0.27684 1.971226,1.35315 1.772366,2.21964 -0.494617,2.15521 -4.184065,0.89244 -6.562624,3.86611 -1.11393,1.39263 -1.798458,2.98055 -2.217811,4.63855 5.503255,-0.22672 9.794299,-4.22843 10.327313,0.0933 0.236393,1.9167 -4.024402,2.63954 -10.942448,4.64068 -0.01158,0.29029 -0.01982,0.57918 -0.02557,0.86601 -0.04548,2.26592 0.631299,4.54576 1.584187,6.67625 0.35828,0.80105 7.502769,-5.341 9.391102,-2.39534 1.83391,2.86076 -7.053708,6.08908 -6.445842,6.70789 1.606306,1.63522 5.757046,4.18867 5.757046,4.18867 z"
       id="path819"
       inkscape:connector-curvature="0"
       sodipodi:nodetypes="caaaaaaascscscsccc" />
    <path
       sodipodi:nodetypes="caaaaaaascscscsccc"
       inkscape:connector-curvature="0"
       id="path835"
       d="m 58.837835,277.92284 c 0,0 5.637795,-2.57919 7.585884,-4.59185 2.693682,-2.78297 3.982542,-6.35277 5.112476,-9.76957 0.773355,-2.33853 1.056746,-4.78789 1.096085,-7.2088 0.0293,-1.80314 -0.08379,-3.63915 -0.641638,-5.38482 -0.749636,-2.34584 -1.410763,-4.99821 -3.580124,-6.66537 -2.293802,-1.76279 -5.882557,-3.49306 -8.883244,-2.68822 -1.032166,0.27684 -1.971226,1.35315 -1.772366,2.21964 0.494617,2.15521 4.184065,0.89244 6.562624,3.86611 1.11393,1.39263 1.798458,2.98055 2.217811,4.63855 -5.503255,-0.22672 -9.794299,-4.22843 -10.327313,0.0933 -0.236393,1.9167 4.024402,2.63954 10.942448,4.64068 0.01158,0.29029 0.01982,0.57918 0.02557,0.86601 0.04548,2.26592 -0.631299,4.54576 -1.584187,6.67625 -0.35828,0.80105 -7.502769,-5.341 -9.391102,-2.39534 -1.83391,2.86076 7.053708,6.08908 6.445842,6.70789 -1.606306,1.63522 -5.757046,4.18867 -5.757046,4.18867 z"
       style="fill:#502d16;fill-rule:evenodd;stroke:none;stroke-width:0.23822534px;stroke-linecap:butt;stroke-linejoin:miter;stroke-opacity:1" />
    <path
       style="opacity:1;fill:#a05a2c;fill-opacity:1;stroke:none;stroke-width:2.09316492;stroke-linecap:round;stroke-linejoin:round;stroke-miterlimit:4;stroke-dasharray:none;stroke-opacity:1"
       d="m 29.857608,271.49404 c -4.152678,2.15549 -4.698937,7.54096 -4.698937,10.75283 0,4.41318 2.858159,9.30107 6.463689,11.04533 3.249946,1.57225 1.285716,1.27042 -0.826823,4.624 h 11.537796 11.537281 c -2.112539,-3.35358 -4.076256,-3.05175 -0.826307,-4.624 3.605527,-1.74426 6.463689,-6.63215 6.463689,-11.04533 0,-3.21187 -0.259694,-8.65775 -4.699455,-10.75283 -5.981465,-2.82259 -18.594943,-2.98806 -24.950933,0 z"
       id="path815"
       inkscape:connector-curvature="0"
       sodipodi:nodetypes="cscccccssc" />
    <path
       style="fill:#a05a2c;fill-rule:evenodd;stroke:none;stroke-width:0.26458332px;stroke-linecap:butt;stroke-linejoin:miter;stroke-opacity:1"
       d="m 26.55492,278.72782 c -1.214001,-0.67656 -3.053925,-1.62298 -4.515564,-1.89184 -3.383741,-0.62243 -6.873904,-0.31666 -9.283906,0.0968 -2.410002,0.41345 -5.1715851,1.8231 -5.1715851,1.8231 0,0 3.9560291,3.27438 5.7015501,3.99432 1.745521,0.71994 5.278945,1.76574 7.240833,2.04256 2.67762,0.21882 4.018696,-0.16558 6.701817,-1.01634 0.433013,-1.53353 -0.510591,-3.15532 -0.610135,-4.73168 z"
       id="path837"
       inkscape:connector-curvature="0"
       sodipodi:nodetypes="cszczcccc" />
    <path
       sodipodi:nodetypes="cszczcccc"
       inkscape:connector-curvature="0"
       id="path842"
       d="m 58.111746,278.72782 c 1.214001,-0.67656 3.053926,-1.62298 4.515565,-1.89184 3.383741,-0.62243 6.873904,-0.31666 9.283906,0.0968 2.410002,0.41345 5.171585,1.8231 5.171585,1.8231 0,0 -3.956029,3.27438 -5.70155,3.99432 -1.745521,0.71994 -5.278945,1.76574 -7.240833,2.04256 -2.67762,0.21882 -4.018696,-0.16558 -6.701818,-1.01634 -0.433014,-1.53353 0.510591,-3.15532 0.610135,-4.73168 z"
       style="fill:#a05a2c;fill-rule:evenodd;stroke:none;stroke-width:0.26458332px;stroke-linecap:butt;stroke-linejoin:miter;stroke-opacity:1" />
    <path
       style="fill:none;fill-rule:evenodd;stroke:#552200;stroke-width:0.5291667;stroke-linecap:butt;stroke-linejoin:miter;stroke-miterlimit:4;stroke-dasharray:none;stroke-opacity:1"
       d="m 37.151988,274.22524 -2.243815,7.06802"
       id="path846"
       inkscape:connector-curvature="0" />
    <path
       style="fill:none;fill-rule:evenodd;stroke:#552200;stroke-width:0.5291667;stroke-linecap:butt;stroke-linejoin:miter;stroke-miterlimit:4;stroke-dasharray:none;stroke-opacity:1"
       d="m 39.283614,279.94698 -1.34629,5.72173"
       id="path848"
       inkscape:connector-curvature="0" />
    <path
       style="fill:none;fill-rule:evenodd;stroke:#552200;stroke-width:0.5291667;stroke-linecap:butt;stroke-linejoin:miter;stroke-miterlimit:4;stroke-dasharray:none;stroke-opacity:1"
       d="m 48.146687,278.60069 0.336574,6.61925"
       id="path850"
       inkscape:connector-curvature="0" />
    <path
       style="fill:none;fill-rule:evenodd;stroke:#552200;stroke-width:0.5291667;stroke-linecap:butt;stroke-linejoin:miter;stroke-miterlimit:4;stroke-dasharray:none;stroke-opacity:1"
       d="m 42.873719,276.58125 0.112191,6.1705"
       id="path852"
       inkscape:connector-curvature="0" />
    <path
       style="fill:none;fill-rule:evenodd;stroke:#552200;stroke-width:0.5291667;stroke-linecap:butt;stroke-linejoin:miter;stroke-miterlimit:4;stroke-dasharray:none;stroke-opacity:1"
       d="m 51.175838,276.35687 3.253534,5.38516"
       id="path854"
       inkscape:connector-curvature="0" />
    <path
       style="fill:none;fill-rule:evenodd;stroke:#552200;stroke-width:0.5291667;stroke-linecap:butt;stroke-linejoin:miter;stroke-miterlimit:4;stroke-dasharray:none;stroke-opacity:1"
       d="m 50.614885,286.90281 -2.91696,5.60954"
       id="path856"
       inkscape:connector-curvature="0" />
    <path
       style="fill:none;fill-rule:evenodd;stroke:#552200;stroke-width:0.5291667;stroke-linecap:butt;stroke-linejoin:miter;stroke-miterlimit:4;stroke-dasharray:none;stroke-opacity:1"
       d="m 43.322484,285.33213 -0.673145,5.38516"
       id="path858"
       inkscape:connector-curvature="0" />
    <path
       style="fill:none;fill-rule:evenodd;stroke:#552200;stroke-width:0.5291667;stroke-linecap:butt;stroke-linejoin:miter;stroke-miterlimit:4;stroke-dasharray:none;stroke-opacity:1"
       d="m 32.888738,285.44433 1.234099,4.71201"
       id="path860"
       inkscape:connector-curvature="0" />
    <path
       style="fill:none;fill-rule:evenodd;stroke:#552200;stroke-width:0.5291667;stroke-linecap:butt;stroke-linejoin:miter;stroke-miterlimit:4;stroke-dasharray:none;stroke-opacity:1"
       d="m 31.318066,278.60069 -2.502501,5.17573"
       id="path862"
       inkscape:connector-curvature="0" />
    <path
       style="fill:none;fill-rule:evenodd;stroke:#552200;stroke-width:0.5291667;stroke-linecap:butt;stroke-linejoin:miter;stroke-miterlimit:4;stroke-dasharray:none;stroke-opacity:1"
       d="m 45.454107,270.52295 v 5.27297"
       id="path864"
       inkscape:connector-curvature="0" />
    <path
       style="fill:none;fill-rule:evenodd;stroke:#552200;stroke-width:0.5291667;stroke-linecap:butt;stroke-linejoin:miter;stroke-miterlimit:4;stroke-dasharray:none;stroke-opacity:1"
       d="m 34.908173,271.30828 -3.029154,4.03887"
       id="path866"
       inkscape:connector-curvature="0" />
    <path
       style="fill:none;fill-rule:evenodd;stroke:#552200;stroke-width:0.5291667;stroke-linecap:butt;stroke-linejoin:miter;stroke-miterlimit:4;stroke-dasharray:none;stroke-opacity:1"
       d="m 37.264179,291.39044 0.785336,2.80477"
       id="path868"
       inkscape:connector-curvature="0" />
    <path
       style="fill:none;fill-rule:evenodd;stroke:#552200;stroke-width:0.5291667;stroke-linecap:butt;stroke-linejoin:miter;stroke-miterlimit:4;stroke-dasharray:none;stroke-opacity:1"
       d="m 46.239444,294.75616 -0.504862,3.16021"
       id="path870"
       inkscape:connector-curvature="0" />
  </g>
</svg>
